<svg width="965" height="797" viewBox="0 0 965 797" fill="none" xmlns="http://www.w3.org/2000/svg">
<path d="M150.088 633.633C172.885 633.633 191.365 615.142 191.365 592.332C191.365 569.521 172.885 551.03 150.088 551.03C127.292 551.03 108.812 569.521 108.812 592.332C108.812 615.142 127.292 633.633 150.088 633.633Z" fill="#06D087"/>
<path d="M668.501 158.562L617.518 158.255L605.769 133.924L682.907 158.664L668.501 158.562Z" fill="white"/>
<path d="M218.543 703.458L163.881 740.568L154.277 703.151L257.878 671.459L218.543 703.458Z" fill="white"/>
<path d="M414.914 221.434C475.178 221.434 524.032 172.551 524.032 112.251C524.032 51.9502 475.178 3.06702 414.914 3.06702C354.65 3.06702 305.796 51.9502 305.796 112.251C305.796 172.551 354.65 221.434 414.914 221.434Z" fill="#06D087"/>
<path d="M541.503 97.9382C544.749 126.704 536.444 155.583 518.415 178.224C500.386 200.865 474.109 215.414 445.361 218.674C442.296 218.981 439.231 219.288 436.166 219.288C462.876 213.818 486.573 198.541 502.59 176.464C518.607 154.388 525.785 127.111 522.709 100.004C519.634 72.8979 506.528 47.9254 485.973 30.0034C465.417 12.0814 438.901 2.50845 411.645 3.16922C414.71 2.55582 417.775 2.14689 420.84 1.73796C449.589 -1.50911 478.45 6.80084 501.077 24.8407C523.705 42.8805 538.246 69.1733 541.503 97.9382Z" fill="white" stroke="black" stroke-width="2" stroke-miterlimit="10"/>
<path d="M440.457 6.13393L458.848 4.08929" stroke="black" stroke-width="2" stroke-miterlimit="10"/>
<path d="M463.343 14.517L481.427 12.4724" stroke="black" stroke-width="2" stroke-miterlimit="10"/>
<path d="M487.149 30.5673L505.437 28.5227" stroke="black" stroke-width="2" stroke-miterlimit="10"/>
<path d="M506.152 52.6495L524.543 50.5026" stroke="black" stroke-width="2" stroke-miterlimit="10"/>
<path d="M518.413 78.923L537.314 76.7762" stroke="black" stroke-width="2" stroke-miterlimit="10"/>
<path d="M523.93 112.251L542.219 110.104" stroke="black" stroke-width="2" stroke-miterlimit="10"/>
<path d="M520.558 138.831L538.949 136.786" stroke="black" stroke-width="2" stroke-miterlimit="10"/>
<path d="M512.078 161.526L530.469 159.482" stroke="black" stroke-width="2" stroke-miterlimit="10"/>
<path d="M498.49 182.177L516.88 180.133" stroke="black" stroke-width="2" stroke-miterlimit="10"/>
<path d="M481.223 198.841L499.614 196.797" stroke="black" stroke-width="2" stroke-miterlimit="10"/>
<path d="M460.482 211.518L479.588 209.371" stroke="black" stroke-width="2" stroke-miterlimit="10"/>
<path d="M328.682 709.592H942.523" stroke="black" stroke-width="2" stroke-miterlimit="10"/>
<path d="M791.412 111.228C818.497 111.228 840.454 89.2584 840.454 62.157C840.454 35.0557 818.497 13.0857 791.412 13.0857C764.327 13.0857 742.371 35.0557 742.371 62.157C742.371 89.2584 764.327 111.228 791.412 111.228Z" fill="white" stroke="black" stroke-width="2" stroke-miterlimit="10"/>
<path d="M906.763 302.913C930.688 302.913 950.083 283.506 950.083 259.567C950.083 235.627 930.688 216.221 906.763 216.221C882.838 216.221 863.443 235.627 863.443 259.567C863.443 283.506 882.838 302.913 906.763 302.913Z" fill="white" stroke="black" stroke-width="2" stroke-miterlimit="10"/>
<path d="M41.0725 391.548C63.192 391.548 81.1233 373.606 81.1233 351.473C81.1233 329.341 63.192 311.398 41.0725 311.398C18.9531 311.398 1.0217 329.341 1.0217 351.473C1.0217 373.606 18.9531 391.548 41.0725 391.548Z" fill="white" stroke="black" stroke-width="2" stroke-miterlimit="10"/>
<path d="M837.287 452.172H490.316V672.308H837.287V452.172Z" fill="white" stroke="black" stroke-width="2" stroke-miterlimit="10"/>
<path d="M837.287 672.379H441.376V709.622H837.287V672.379Z" stroke="black" stroke-width="2" stroke-miterlimit="10"/>
<path d="M824.924 463.724H502.781V672.379H824.924V463.724Z" fill="white" stroke="black" stroke-width="2" stroke-miterlimit="10"/>
<path d="M377.213 131.777H182.17C173.311 131.777 166.129 138.963 166.129 147.827V582.497C166.129 591.362 173.311 598.547 182.17 598.547H377.213C386.072 598.547 393.254 591.362 393.254 582.497V147.827C393.254 138.963 386.072 131.777 377.213 131.777Z" fill="white" stroke="black" stroke-width="2" stroke-miterlimit="10"/>
<path d="M377.213 131.777H182.17C173.311 131.777 166.129 138.963 166.129 147.827V582.497C166.129 591.362 173.311 598.547 182.17 598.547H377.213C386.072 598.547 393.254 591.362 393.254 582.497V147.827C393.254 138.963 386.072 131.777 377.213 131.777Z" stroke="black" stroke-width="2" stroke-miterlimit="10"/>
<path d="M379.461 455.545H368.529V522.507H379.461V455.545Z" fill="white" stroke="black" stroke-width="2" stroke-miterlimit="10"/>
<path d="M379.155 455.852H352.692L367.201 328.471L379.665 314.465L379.155 455.852Z" fill="#06D087" stroke="black" stroke-width="2" stroke-miterlimit="10"/>
<path d="M364.749 537.331H216.806L229.066 495.007H371.39L377.418 521.281C377.863 523.194 377.871 525.183 377.443 527.101C377.014 529.018 376.16 530.814 374.943 532.356C373.726 533.898 372.178 535.146 370.413 536.007C368.648 536.868 366.712 537.321 364.749 537.331Z" fill="black" stroke="black" stroke-width="2" stroke-miterlimit="10"/>
<path d="M279.028 592.434C292.626 592.434 303.651 581.403 303.651 567.796C303.651 554.189 292.626 543.158 279.028 543.158C265.429 543.158 254.404 554.189 254.404 567.796C254.404 581.403 265.429 592.434 279.028 592.434Z" stroke="black" stroke-width="2" stroke-miterlimit="10"/>
<path d="M279.028 589.776C291.159 589.776 300.994 579.935 300.994 567.796C300.994 555.657 291.159 545.816 279.028 545.816C266.896 545.816 257.061 555.657 257.061 567.796C257.061 579.935 266.896 589.776 279.028 589.776Z" stroke="black" stroke-width="2" stroke-miterlimit="10"/>
<path d="M364.851 240.756H312.437V322.542H364.851V240.756Z" fill="black"/>
<path d="M363.522 146.294H194.43C185.571 146.294 178.39 153.48 178.39 162.344V521.168C178.39 530.033 185.571 537.219 194.43 537.219H363.522C372.382 537.219 379.563 530.033 379.563 521.168V162.344C379.563 153.48 372.382 146.294 363.522 146.294Z" stroke="black" stroke-width="2" stroke-miterlimit="10"/>
<path d="M365.055 495.007H228.249L207.815 312.523C207.715 311.698 207.788 310.862 208.026 310.066C208.265 309.27 208.666 308.533 209.203 307.899C209.74 307.266 210.402 306.75 211.148 306.385C211.894 306.019 212.707 305.812 213.536 305.776H335.834C345.447 305.728 354.875 308.424 363.012 313.545C369.551 317.635 372.82 321.826 372.82 330.618L365.055 495.007Z" fill="white" stroke="black" stroke-width="2" stroke-miterlimit="10"/>
<path d="M194.226 464.031C190.402 463.239 186.771 461.701 183.541 459.506C180.311 457.31 177.544 454.499 175.4 451.233C173.256 447.967 171.776 444.311 171.044 440.472C170.312 436.634 170.343 432.689 171.136 428.863L191.672 329.596C195.452 312.012 207.1 301.175 226.818 306.389C234.55 308.011 241.322 312.636 245.651 319.247C249.98 325.859 251.511 333.919 249.909 341.659L229.373 440.926C228.582 444.753 227.045 448.386 224.85 451.618C222.656 454.85 219.846 457.618 216.583 459.763C213.319 461.909 209.665 463.39 205.829 464.122C201.993 464.854 198.05 464.823 194.226 464.031Z" fill="#06D087" stroke="black" stroke-width="2" stroke-miterlimit="10"/>
<path d="M316.728 373.044L284.034 391.65L275.452 377.542L308.248 358.936C310.154 357.834 312.413 357.517 314.549 358.051C316.684 358.585 318.528 359.929 319.691 361.799H319.794C320.368 362.729 320.745 363.767 320.901 364.849C321.057 365.931 320.989 367.033 320.702 368.088C320.415 369.142 319.914 370.126 319.23 370.979C318.546 371.832 317.695 372.535 316.728 373.044Z" fill="white" stroke="black" stroke-width="2" stroke-miterlimit="10"/>
<path d="M313.868 398.091L299.155 396.864V396.66L313.663 397.784C313.719 397.816 313.766 397.86 313.802 397.913C313.837 397.967 313.86 398.027 313.868 398.091Z" fill="white" stroke="black" stroke-width="2" stroke-miterlimit="10"/>
<path d="M336.958 400.033L313.868 398.091L299.155 396.864V396.66L313.663 397.784L336.958 400.033Z" fill="white" stroke="black" stroke-width="2" stroke-miterlimit="10"/>
<path d="M333.587 417.311C335.792 417.468 337.845 418.491 339.3 420.157C340.755 421.823 341.492 423.997 341.351 426.205C341.269 426.398 341.234 426.609 341.249 426.818C340.852 428.885 339.702 430.73 338.022 431.996C336.341 433.262 334.251 433.858 332.156 433.668L300.79 431.01C299.015 430.914 297.239 431.192 295.579 431.828H295.477L211.391 462.497C196.065 468.222 178.798 460.657 172.975 445.833C167.151 431.01 174.916 414.448 190.344 408.825L273.817 378.258H275.043C288.427 379.28 301.505 380.814 302.629 380.916L338.389 383.881C339.472 383.945 340.531 384.225 341.506 384.704C342.48 385.183 343.349 385.851 344.062 386.669C344.775 387.488 345.319 388.44 345.66 389.471C346.002 390.502 346.135 391.59 346.051 392.673C345.982 393.763 345.683 394.826 345.175 395.793C344.667 396.76 343.961 397.608 343.103 398.284C342.245 398.959 341.254 399.446 340.195 399.712C339.136 399.978 338.033 400.018 336.958 399.829L313.765 397.887L299.257 396.762V396.966L313.97 398.193L337.06 400.136C337.469 400.136 342.884 400.851 346.154 402.998C349.423 405.145 349.116 407.599 349.014 409.745C349.023 409.988 348.988 410.231 348.912 410.461C348.489 412.691 347.249 414.682 345.434 416.044C343.619 417.406 341.362 418.04 339.104 417.822L333.587 417.311Z" fill="white" stroke="black" stroke-width="2" stroke-miterlimit="10"/>
<path d="M336.958 400.033L313.868 398.091L299.155 396.864V396.66L313.663 397.784L336.958 400.033Z" fill="white" stroke="black" stroke-width="2" stroke-miterlimit="10"/>
<path d="M296.397 413.733L333.587 417.311" stroke="black" stroke-width="2" stroke-miterlimit="10"/>
<path d="M352.692 402.794C352.692 402.794 355.962 402.692 361.377 403.1" stroke="black" stroke-width="2" stroke-miterlimit="10" stroke-linecap="round"/>
<path d="M379.563 405.656C402.552 410.257 433.101 422.627 441.376 454.932C451.083 492.86 464.16 515.147 492.155 525.983" stroke="black" stroke-width="2" stroke-miterlimit="10" stroke-linecap="round" stroke-dasharray="18.01 18.01"/>
<path d="M500.942 528.846C503.598 529.664 506.459 530.277 509.32 530.89" stroke="black" stroke-width="2" stroke-miterlimit="10" stroke-linecap="round"/>
<path d="M242.451 511.466L237.853 533.957" stroke="white" stroke-width="2" stroke-miterlimit="10" stroke-linecap="round"/>
<path d="M272.386 274.084H317.137C317.598 274.084 318.04 274.267 318.365 274.593C318.691 274.919 318.874 275.361 318.874 275.822V304.958C318.874 307.482 318.377 309.981 317.412 312.313C316.447 314.645 315.032 316.763 313.248 318.548C311.464 320.333 309.347 321.749 307.017 322.714C304.686 323.68 302.188 324.177 299.666 324.177C291.97 324.177 284.59 321.118 279.148 315.674C273.707 310.229 270.65 302.844 270.65 295.144V275.822C270.65 275.361 270.833 274.919 271.158 274.593C271.484 274.267 271.926 274.084 272.386 274.084Z" fill="white" stroke="black" stroke-width="2" stroke-miterlimit="10"/>
<path d="M318.874 285.227C318.874 285.227 319.283 296.575 305.694 299.131C286.179 302.913 269.219 272.755 269.219 272.755L318.874 285.227Z" fill="black"/>
<path d="M265.848 168.785C276.456 168.785 285.056 160.18 285.056 149.565C285.056 138.951 276.456 130.346 265.848 130.346C255.239 130.346 246.639 138.951 246.639 149.565C246.639 160.18 255.239 168.785 265.848 168.785Z" fill="black" stroke="white" stroke-width="2" stroke-miterlimit="10" stroke-linecap="round"/>
<path d="M321.326 172.363C312.765 182.962 303.107 192.626 292.514 201.192C282.132 209.717 270.739 216.927 258.593 222.661C257.711 221.048 256.41 219.702 254.828 218.767C253.246 217.831 251.44 217.34 249.602 217.345C248.633 217.322 247.666 217.461 246.742 217.754C244.475 218.404 242.499 219.811 241.143 221.74C239.787 223.67 239.132 226.006 239.287 228.36C239.442 230.714 240.399 232.944 241.996 234.678C243.594 236.413 245.738 237.548 248.07 237.894H249.602C251.157 237.883 252.691 237.534 254.098 236.871C258.9 243.414 264.622 252.513 267.482 264.065C270.343 275.617 281.684 284.307 293.025 287.578L294.966 288.09C317.341 293.406 344.314 270.608 346.869 230.737C348.708 203.135 344.212 180.848 321.326 172.363Z" fill="white" stroke="black" stroke-width="2" stroke-miterlimit="10" stroke-linecap="round"/>
<path d="M253.996 236.974C260.433 245.663 269.117 259.874 272.08 276.128C260.3 266.171 251.879 252.819 247.968 237.894H249.5C251.048 237.915 252.581 237.601 253.996 236.974Z" fill="white" stroke="black" stroke-width="2" stroke-miterlimit="10" stroke-linecap="round"/>
<path d="M308.963 169.296C313.149 169.87 317.26 170.899 321.224 172.363C312.662 182.962 303.005 192.626 292.412 201.192C282.03 209.717 270.637 216.927 258.491 222.661C257.609 221.048 256.308 219.702 254.726 218.767C253.144 217.831 251.338 217.34 249.5 217.345C248.531 217.322 247.564 217.461 246.639 217.754C250.42 186.778 279.436 165.411 308.963 169.296Z" fill="white" stroke="black" stroke-width="2" stroke-miterlimit="10" stroke-linecap="round"/>
<path d="M336.039 214.38C336.039 214.38 342.169 213.971 347.073 222.457" stroke="black" stroke-width="2" stroke-miterlimit="10" stroke-linecap="round"/>
<path d="M310.34 227.092C310.668 224.345 309.616 221.961 307.991 221.767C306.366 221.573 304.784 223.643 304.456 226.39C304.129 229.137 305.181 231.521 306.806 231.715C308.43 231.909 310.013 229.839 310.34 227.092Z" fill="black"/>
<path d="M325.924 230.533L329.704 254.455C329.738 254.614 329.733 254.779 329.69 254.937C329.647 255.094 329.568 255.238 329.458 255.358C329.348 255.478 329.211 255.57 329.058 255.626C328.906 255.683 328.742 255.702 328.58 255.682L316.524 253.842" stroke="black" stroke-width="2" stroke-miterlimit="10" stroke-linecap="round"/>
<path d="M342.047 231.034C342.374 228.287 341.322 225.902 339.697 225.709C338.073 225.515 336.49 227.585 336.163 230.332C335.835 233.079 336.887 235.463 338.512 235.657C340.137 235.851 341.719 233.781 342.047 231.034Z" fill="black"/>
<path d="M294.047 217.652C296.051 215.466 298.504 213.741 301.237 212.593C303.971 211.446 306.92 210.905 309.883 211.007" stroke="black" stroke-width="2" stroke-miterlimit="10" stroke-linecap="round"/>
<path d="M297.214 258.136C297.214 258.136 297.52 271.221 309.372 270.812" stroke="black" stroke-width="2" stroke-miterlimit="10" stroke-linecap="round"/>
<path d="M323.983 168.887L321.224 172.363C312.662 182.962 303.005 192.626 292.412 201.192C282.91 208.86 254.098 236.974 279.028 291.463C284.034 302.606 297.52 329.494 287.099 338.797C281.071 344.215 260.024 347.384 257.98 335.321C257.572 332.663 255.426 270.506 255.222 278.071C254.609 295.859 248.581 321.315 246.026 321.213C243.472 321.11 237.648 324.586 235.809 326.938C226.205 339.819 221.608 374.169 203.319 358.63C202.4 357.812 222.834 276.026 222.425 277.151C219.871 286.352 197.802 354.131 196.576 353.109C195.35 352.087 192.08 349.429 190.241 347.691C188.402 345.953 219.564 273.573 217.827 277.151C209.858 294.735 185.746 342.988 185.031 341.966C180.229 335.014 180.535 326.631 189.833 310.274C206.18 281.24 217.521 260.078 215.171 245.561C212.821 231.044 213.638 156.722 273.715 156.722C333.791 156.722 323.983 168.887 323.983 168.887Z" fill="black"/>
<path d="M319.487 174.51C319.487 174.51 337.367 220.208 347.277 222.661C347.277 222.661 335.936 351.167 367.098 331.845C370.857 329.542 374.746 327.46 378.746 325.609C381.096 324.586 369.551 264.27 370.061 266.11C384.57 315.897 382.628 323.564 390.802 321.826C400.61 319.781 403.573 325.609 408.273 321.826C415.629 315.999 421.453 313.954 398.26 282.058C375.068 250.162 355.145 240.961 354.021 209.064C352.59 165.718 327.048 164.9 324.698 167.865L319.487 174.51Z" fill="black"/>
<path d="M315.4 165.718C315.4 165.718 293.229 189.947 267.891 202.419" stroke="white" stroke-width="2" stroke-miterlimit="10" stroke-linecap="round"/>
<path d="M312.539 164.287C312.539 164.287 297.929 174.51 283.114 178.088" stroke="white" stroke-width="2" stroke-miterlimit="10" stroke-linecap="round"/>
<path d="M958.972 592.945H874.988C872.223 592.945 869.981 595.188 869.981 597.954V652.219C869.981 654.986 872.223 657.229 874.988 657.229H958.972C961.737 657.229 963.978 654.986 963.978 652.219V597.954C963.978 595.188 961.737 592.945 958.972 592.945Z" fill="#06D087" stroke="black" stroke-width="2" stroke-miterlimit="10"/>
<path d="M871.718 594.172L914.119 623.206C914.937 623.796 915.92 624.114 916.929 624.114C917.937 624.114 918.921 623.796 919.738 623.206L962.139 594.172" fill="#06D087"/>
<path d="M871.718 594.172L914.119 623.206C914.937 623.796 915.92 624.114 916.929 624.114C917.937 624.114 918.921 623.796 919.738 623.206L962.139 594.172" stroke="black" stroke-width="2" stroke-miterlimit="10"/>
<path d="M922.804 476.298H804.184C800.572 476.298 797.645 479.228 797.645 482.841V527.772C797.645 531.386 800.572 534.315 804.184 534.315H922.804C926.415 534.315 929.342 531.386 929.342 527.772V482.841C929.342 479.228 926.415 476.298 922.804 476.298Z" fill="white" stroke="black" stroke-width="2" stroke-miterlimit="10"/>
<path d="M800.403 477.525L858.947 503.288C860.372 503.947 861.923 504.289 863.494 504.289C865.064 504.289 866.615 503.947 868.04 503.288L926.584 477.525" stroke="black" stroke-width="2" stroke-miterlimit="10"/>
<path d="M185.848 494.905H116.576C114.263 494.905 112.388 496.781 112.388 499.096V543.833C112.388 546.148 114.263 548.024 116.576 548.024H185.848C188.162 548.024 190.037 546.148 190.037 543.833V499.096C190.037 496.781 188.162 494.905 185.848 494.905Z" fill="white" stroke="black" stroke-width="2" stroke-miterlimit="10"/>
<path d="M113.716 495.927L148.76 519.951C149.463 520.397 150.278 520.633 151.11 520.633C151.942 520.633 152.757 520.397 153.46 519.951L188.505 495.927" fill="white"/>
<path d="M113.716 495.927L148.76 519.951C149.463 520.397 150.278 520.633 151.11 520.633C151.942 520.633 152.757 520.397 153.46 519.951L188.505 495.927" stroke="black" stroke-width="2" stroke-miterlimit="10"/>
<path d="M232.029 716.032L187.891 775.429" stroke="black" stroke-width="2" stroke-miterlimit="10" stroke-linecap="round"/>
<path d="M209.96 757.845L184.724 795.978" stroke="black" stroke-width="2" stroke-miterlimit="10" stroke-linecap="round"/>
<path d="M126.896 716.032L50.5744 738.114" stroke="black" stroke-width="2" stroke-miterlimit="10" stroke-linecap="round"/>
<path d="M95.9381 716.032L39.3356 732.287" stroke="black" stroke-width="2" stroke-miterlimit="10" stroke-linecap="round"/>
<path d="M128.735 697.631L260.739 670.641L154.277 703.458L128.735 697.733C128.633 697.733 128.633 697.631 128.735 697.631Z" fill="white" stroke="black" stroke-width="2" stroke-miterlimit="10"/>
<path d="M201.582 734.23L170.522 710.819C170.42 710.819 170.42 710.716 170.522 710.716L260.739 670.641C260.841 670.539 260.841 670.641 260.841 670.744L201.889 734.23C201.889 734.332 201.684 734.332 201.582 734.23Z" fill="white" stroke="black" stroke-width="2" stroke-miterlimit="10"/>
<path d="M154.277 703.458L163.779 740.568C163.779 740.67 163.881 740.67 163.881 740.568L170.42 710.818" stroke="black" stroke-width="2" stroke-miterlimit="10"/>
<path d="M187.891 723.904L163.779 740.568" stroke="black" stroke-width="2" stroke-miterlimit="10"/>
<path d="M516.472 530.686L589.013 512.08C589.115 512.08 589.217 512.182 589.217 512.386L576.752 530.992L516.472 530.788C516.37 530.788 516.37 530.686 516.472 530.686Z" fill="#06D087" stroke="black" stroke-width="2" stroke-miterlimit="10"/>
<path d="M573.687 539.376L570.009 567.898C570.009 568.103 569.805 568.205 569.6 568.103L516.369 531.095C516.369 530.993 516.369 530.89 516.472 530.89L573.687 539.376Z" fill="#06D087" stroke="black" stroke-width="2" stroke-miterlimit="10"/>
<path d="M576.752 530.992L590.034 547.043C590.137 547.145 590.034 547.35 589.83 547.247L574.504 539.375" stroke="black" stroke-width="2" stroke-miterlimit="10"/>
<path d="M572.972 545.305L589.932 547.247" stroke="black" stroke-width="2" stroke-miterlimit="10"/>
<path d="M628.246 105.503L689.344 159.482C689.344 159.584 689.344 159.686 689.242 159.686L605.871 134.435C605.666 134.333 605.666 134.128 605.769 133.924L627.429 105.606C627.468 105.535 627.523 105.476 627.589 105.431C627.656 105.386 627.732 105.357 627.812 105.347C627.891 105.337 627.972 105.346 628.047 105.373C628.123 105.401 628.191 105.445 628.246 105.503Z" fill="white" stroke="black" stroke-width="2" stroke-miterlimit="10"/>
<path d="M611.899 147.521L605.769 134.231" stroke="black" stroke-width="2" stroke-miterlimit="10"/>
<path d="M589.626 144.454L554.479 169.909C554.398 169.937 554.331 169.995 554.292 170.072C554.254 170.148 554.248 170.237 554.275 170.318C554.302 170.4 554.36 170.467 554.437 170.505C554.513 170.544 554.602 170.55 554.683 170.523L688.935 159.686L590.954 144.147C590.724 144.084 590.483 144.078 590.251 144.132C590.019 144.185 589.804 144.296 589.626 144.454Z" fill="white" stroke="black" stroke-width="2" stroke-miterlimit="10"/>
<path d="M572.257 137.502L563.777 135.56" stroke="black" stroke-width="2" stroke-miterlimit="10" stroke-linecap="round"/>
<path d="M546.612 131.368C487.353 116.033 401.223 85.977 359.947 34.7588C312.131 -24.4334 178.798 57.6588 178.798 57.6588C178.798 57.6588 108.607 91.4976 36.577 70.949" stroke="black" stroke-width="2" stroke-miterlimit="10" stroke-linecap="round" stroke-dasharray="17.25 17.25"/>
<path d="M28.0969 68.2909C25.4404 67.3708 22.6819 66.3485 20.0254 65.2239" stroke="black" stroke-width="2" stroke-miterlimit="10" stroke-linecap="round"/>
<path d="M447.098 313.545C447.098 284.716 474.786 261.305 508.911 261.305H718.054C752.179 261.305 779.867 284.716 779.867 313.545C779.867 342.477 752.179 365.888 718.054 365.888H508.911" fill="white"/>
<path d="M447.098 313.545C447.098 284.716 474.786 261.305 508.911 261.305H718.054C752.179 261.305 779.867 284.716 779.867 313.545C779.867 342.477 752.179 365.888 718.054 365.888H508.911" stroke="black" stroke-width="2" stroke-miterlimit="10"/>
<path d="M447.098 313.545V411.995C447.123 412.065 447.167 412.126 447.224 412.173C447.282 412.22 447.351 412.251 447.425 412.261C447.498 412.272 447.573 412.262 447.642 412.233C447.71 412.204 447.769 412.157 447.813 412.097C450.572 400.954 462.628 367.626 508.911 365.888" fill="white"/>
<path d="M447.098 313.545V411.995C447.123 412.065 447.167 412.126 447.224 412.173C447.282 412.22 447.351 412.251 447.425 412.261C447.498 412.272 447.573 412.262 447.642 412.233C447.71 412.204 447.769 412.157 447.813 412.097C450.572 400.954 462.628 367.626 508.911 365.888" stroke="black" stroke-width="2" stroke-miterlimit="10"/>
<path d="M503.7 289.01H719.995" stroke="black" stroke-width="2" stroke-miterlimit="10" stroke-linecap="round"/>
<path d="M503.7 314.67H719.995" stroke="black" stroke-width="2" stroke-miterlimit="10" stroke-linecap="round"/>
<path d="M503.7 340.432H719.995" stroke="black" stroke-width="2" stroke-miterlimit="10" stroke-linecap="round"/>
<path d="M193.511 215.3C193.511 199.761 178.594 187.084 160.203 187.084H47.5093C29.1186 187.084 14.2017 199.761 14.2017 215.3C14.2017 230.84 29.1186 243.516 47.5093 243.516H160.203" fill="white"/>
<path d="M193.511 215.3C193.511 199.761 178.594 187.084 160.203 187.084H47.5093C29.1186 187.084 14.2017 199.761 14.2017 215.3C14.2017 230.84 29.1186 243.516 47.5093 243.516H160.203" stroke="black" stroke-width="2" stroke-miterlimit="10"/>
<path d="M193.511 215.3V268.359C193.511 268.563 193.204 268.666 193.102 268.359C191.672 262.429 185.133 244.437 160.203 243.516" fill="white"/>
<path d="M193.511 215.3V268.359C193.511 268.563 193.204 268.666 193.102 268.359C191.672 262.429 185.133 244.437 160.203 243.516" stroke="black" stroke-width="2" stroke-miterlimit="10"/>
<path d="M163.064 206.917H46.4875" stroke="black" stroke-width="2" stroke-miterlimit="10" stroke-linecap="round"/>
<path d="M163.064 227.67H46.4875" stroke="black" stroke-width="2" stroke-miterlimit="10" stroke-linecap="round"/>
<path d="M648.745 576.914C651.645 561.259 641.312 546.215 625.666 543.314C610.02 540.412 594.986 550.751 592.086 566.407L572.281 673.33C569.381 688.985 579.714 704.029 595.36 706.93C611.006 709.832 626.04 699.493 628.94 683.837L648.745 576.914Z" fill="black" stroke="black" stroke-width="2" stroke-miterlimit="10"/>
<path d="M621.809 578.735V543.363C661.758 550.621 740.94 516.067 740.327 527.414C739.714 538.762 778.028 555.63 778.028 555.63V688.634L621.809 686.078V578.735Z" fill="black" stroke="black" stroke-width="2" stroke-miterlimit="10"/>
<path d="M683.418 559.72C679.206 558.972 675.462 556.581 673.01 553.074C670.558 549.566 669.598 545.227 670.34 541.011L675.449 511.262L745.231 509.626L742.064 521.996C738.839 534.522 731.006 545.367 720.132 552.361C709.258 559.356 696.145 561.984 683.418 559.72Z" fill="white" stroke="black" stroke-width="2" stroke-miterlimit="10"/>
<path d="M671.975 532.628C671.296 535.044 670.784 537.503 670.443 539.989C669.932 544.896 686.483 564.934 714.784 542.136C735.219 525.574 740.327 510.342 740.327 510.342C740.327 510.342 725.921 531.708 671.975 532.628Z" fill="black"/>
<path d="M745.027 511.364C743.404 511.38 741.797 511.031 740.327 510.342L738.488 513.511C725.41 535.797 698.744 546.123 674.734 536.206C665.334 532.322 650.315 512.08 662.984 466.791C664.312 461.884 667.48 452.683 670.953 449.207C682.397 451.558 691.183 450.536 713.15 445.833C713.15 445.833 713.559 463.315 723.878 469.449C731.966 474.149 739.716 479.41 747.07 485.193C749.165 485.45 751.166 486.211 752.903 487.411C754.64 488.61 756.061 490.213 757.045 492.081C758.029 493.949 758.546 496.028 758.553 498.14C758.559 500.251 758.055 502.333 757.083 504.208C755.969 506.431 754.241 508.286 752.104 509.555C749.967 510.824 747.51 511.452 745.027 511.364Z" fill="white" stroke="black" stroke-width="2" stroke-miterlimit="10" stroke-linecap="round"/>
<path d="M761.681 506.457C761.681 506.457 754.529 525.676 740.225 529.152L744.516 512.08C747.006 512.133 749.46 511.479 751.593 510.195C753.727 508.91 755.453 507.047 756.572 504.821C759.535 499.096 758.003 491.735 752.588 488.26C749.012 485.908 743.086 485.704 739.714 490.1C738.999 487.135 737.773 478.241 723.469 470.062C713.048 464.133 712.741 446.447 712.741 446.447C690.774 451.149 674.836 451.149 663.495 448.798C644.9 444.913 638.055 434.792 635.705 429.17C633.65 425.217 632.869 420.725 633.469 416.311C634.069 411.896 636.02 407.776 639.054 404.516C642.089 401.256 646.057 399.015 650.415 398.103C654.773 397.191 659.307 397.651 663.393 399.42C672.792 395.842 683.929 395.637 695.883 403.816C695.883 403.816 754.427 371 777.926 428.761C777.926 428.761 808.781 467.404 761.681 506.457Z" fill="black"/>
<path d="M662.678 397.989C662.678 397.989 681.784 406.065 675.96 422.218" stroke="white" stroke-width="2" stroke-miterlimit="10"/>
<path d="M694.044 401.567C694.044 401.567 712.332 411.586 704.874 427.023" stroke="white" stroke-width="2" stroke-miterlimit="10"/>
<path d="M776.904 422.831C776.904 422.831 783.034 442.766 766.891 448.696" stroke="white" stroke-width="2" stroke-miterlimit="10"/>
<path d="M728.68 690.985C728.688 690.192 728.79 689.403 728.986 688.634L728.68 690.985Z" fill="black"/>
<path d="M728.68 690.985C728.688 690.192 728.79 689.403 728.986 688.634" stroke="black" stroke-width="2" stroke-miterlimit="10"/>
<path d="M749.012 580.268C750.476 572.379 755.012 565.394 761.622 560.85C768.232 556.307 776.375 554.576 784.26 556.039C792.118 557.504 799.073 562.032 803.595 568.627C808.117 575.222 809.836 583.344 808.373 591.207L788.347 699.675C788.143 700.697 728.067 696.302 728.68 690.985" fill="black"/>
<path d="M749.012 580.268C750.476 572.379 755.012 565.394 761.622 560.85C768.232 556.307 776.375 554.576 784.26 556.039V556.039C792.118 557.504 799.073 562.032 803.595 568.627C808.117 575.222 809.836 583.344 808.373 591.207L788.347 699.675C788.143 700.697 728.067 696.302 728.68 690.985" stroke="black" stroke-width="2" stroke-miterlimit="10"/>
<path d="M751.77 504.412L742.166 499.301C741.962 499.198 741.962 498.892 742.166 498.892L754.018 495.62" stroke="black" stroke-width="2" stroke-miterlimit="10"/>
<path d="M728.986 688.634L749.114 580.166" stroke="white" stroke-width="2" stroke-miterlimit="10"/>
<path d="M697.926 578.633C695.842 578.193 693.721 577.953 691.592 577.917H673.099L667.684 573.01C666.892 572.31 666.247 571.459 665.787 570.507C665.326 569.555 665.06 568.52 665.003 567.464C664.946 566.408 665.099 565.351 665.454 564.355C665.809 563.359 666.359 562.444 667.071 561.662C667.804 560.812 668.715 560.133 669.739 559.674C670.763 559.215 671.875 558.986 672.997 559.004C674.998 558.962 676.938 559.694 678.412 561.049L697.926 578.633Z" fill="white" stroke="black" stroke-width="2" stroke-miterlimit="10"/>
<path d="M714.172 687.612L669.012 628.215H653.993C652.938 628.229 651.891 628.032 650.912 627.638C649.933 627.243 649.043 626.658 648.292 625.916C647.541 625.174 646.945 624.29 646.538 623.316C646.131 622.342 645.922 621.297 645.922 620.241C645.922 618.099 646.772 616.045 648.286 614.53C649.799 613.016 651.852 612.165 653.993 612.165H648.782C647.217 612.197 645.679 611.755 644.37 610.897C643.06 610.04 642.04 608.806 641.443 607.358C640.847 605.91 640.702 604.315 641.027 602.783C641.352 601.251 642.132 599.853 643.265 598.772C643.992 598.052 644.853 597.483 645.8 597.097C646.746 596.711 647.76 596.516 648.782 596.523H643.265C640.817 596.496 638.478 595.504 636.757 593.762C635.035 592.021 634.07 589.67 634.07 587.22C634.068 586 634.311 584.792 634.785 583.668C635.259 582.544 635.954 581.527 636.828 580.677C638.543 578.981 640.854 578.027 643.265 578.019H691.592C693.721 578.055 695.842 578.295 697.926 578.735C705.017 580.208 711.333 584.204 715.704 589.98L782.421 677.593" fill="white"/>
<path d="M714.172 687.612L669.012 628.215H653.993C652.938 628.229 651.891 628.032 650.912 627.638C649.933 627.243 649.043 626.658 648.292 625.916C647.541 625.174 646.945 624.29 646.538 623.316C646.131 622.342 645.922 621.297 645.922 620.241C645.922 618.099 646.772 616.045 648.286 614.53C649.799 613.016 651.852 612.165 653.993 612.165H648.782C647.217 612.197 645.679 611.755 644.37 610.897C643.06 610.04 642.04 608.806 641.443 607.358C640.847 605.91 640.702 604.315 641.027 602.783C641.352 601.251 642.132 599.853 643.265 598.772C643.992 598.052 644.853 597.483 645.8 597.097C646.746 596.711 647.76 596.516 648.782 596.523H643.265C640.817 596.496 638.478 595.504 636.757 593.762C635.035 592.021 634.07 589.67 634.07 587.22C634.068 586 634.311 584.792 634.785 583.668C635.259 582.544 635.954 581.527 636.828 580.677C638.543 578.981 640.854 578.027 643.265 578.019H691.592C693.721 578.055 695.842 578.295 697.926 578.735V578.735C705.017 580.208 711.333 584.204 715.704 589.98L782.421 677.593" stroke="black" stroke-width="2" stroke-miterlimit="10"/>
<path d="M648.782 596.421H678.514" stroke="black" stroke-width="2" stroke-miterlimit="10"/>
<path d="M653.993 612.165H678.514" stroke="black" stroke-width="2" stroke-miterlimit="10"/>
<path d="M681.375 459.43C681.375 459.43 675.858 456.568 667.99 462.395" stroke="black" stroke-width="1.95" stroke-miterlimit="10" stroke-linecap="round"/>
<path d="M705.771 482.928C706.571 480.279 705.949 477.749 704.382 477.275C702.815 476.802 700.898 478.566 700.099 481.214C699.299 483.863 699.922 486.393 701.488 486.867C703.055 487.34 704.972 485.576 705.771 482.928Z" fill="black"/>
<path d="M685.462 477.321L672.384 497.767C672.299 497.912 672.248 498.073 672.233 498.24C672.219 498.407 672.242 498.575 672.301 498.731C672.359 498.888 672.452 499.03 672.573 499.146C672.693 499.262 672.838 499.35 672.997 499.403L684.746 502.47" stroke="black" stroke-width="1.95" stroke-miterlimit="10" stroke-linecap="round"/>
<path d="M675.524 474.511C676.323 471.862 675.701 469.332 674.134 468.858C672.567 468.385 670.65 470.148 669.851 472.797C669.051 475.445 669.673 477.976 671.24 478.449C672.807 478.923 674.724 477.159 675.524 474.511Z" fill="black"/>
<path d="M717.747 478.65C716.786 475.824 715.217 473.243 713.152 471.088C711.087 468.933 708.575 467.257 705.794 466.177" stroke="black" stroke-width="1.95" stroke-miterlimit="10" stroke-linecap="round"/>
<path d="M697.722 509.626C697.722 509.626 695.168 525.37 679.638 521.689" stroke="black" stroke-width="1.95" stroke-miterlimit="10" stroke-linecap="round"/>
<path d="M837.287 672.379H441.376V709.622H837.287V672.379Z" fill="white" stroke="black" stroke-width="2" stroke-miterlimit="10"/>
<path d="M596.165 547.247C596.165 547.247 625.181 543.363 663.291 573.623" stroke="white" stroke-width="2" stroke-miterlimit="10" stroke-linecap="round" stroke-dasharray="17 17"/>
<path d="M120.357 547.861V533.651" stroke="black" stroke-width="2" stroke-miterlimit="10" stroke-linecap="round"/>
<path d="M124.852 547.656V539.069" stroke="black" stroke-width="2" stroke-miterlimit="10" stroke-linecap="round"/>
<path d="M173.383 496.847V503.288" stroke="black" stroke-width="2" stroke-miterlimit="10" stroke-linecap="round"/>
<path d="M635.705 113.273L627.122 124.927" stroke="black" stroke-width="2" stroke-miterlimit="10" stroke-linecap="round"/>
<path d="M641.426 118.282L636.624 125.848" stroke="black" stroke-width="2" stroke-miterlimit="10" stroke-linecap="round"/>
<path d="M631.618 108.877L628.144 113.784" stroke="black" stroke-width="2" stroke-miterlimit="10" stroke-linecap="round"/>
<path d="M787.632 709.592V692.928" stroke="black" stroke-width="2" stroke-miterlimit="10" stroke-linecap="round"/>
<path d="M797.645 709.592V699.777" stroke="black" stroke-width="2" stroke-miterlimit="10" stroke-linecap="round"/>
<path d="M455.987 672.686V695.177" stroke="black" stroke-width="2" stroke-miterlimit="10" stroke-linecap="round"/>
<path d="M464.467 672.686V683.727" stroke="black" stroke-width="2" stroke-miterlimit="10" stroke-linecap="round"/>
</svg>
