<svg width="990" height="740" viewBox="0 0 990 740" fill="none" xmlns="http://www.w3.org/2000/svg">
<g clip-path="url(#clip0_301_2420)">
<path d="M266.858 490.207C335.364 490.207 390.898 434.716 390.898 366.264C390.898 297.813 335.364 242.322 266.858 242.322C198.352 242.322 142.817 297.813 142.817 366.264C142.817 434.716 198.352 490.207 266.858 490.207Z" fill="#06D087"/>
<path d="M887.893 105.264C898.309 105.264 906.752 96.8268 906.752 86.4192C906.752 76.0117 898.309 67.5747 887.893 67.5747C877.477 67.5747 869.033 76.0117 869.033 86.4192C869.033 96.8268 877.477 105.264 887.893 105.264Z" stroke="#06D087" stroke-width="2" stroke-miterlimit="10"/>
<path d="M44.3655 675.414C59.0945 675.414 71.0347 663.483 71.0347 648.766C71.0347 634.049 59.0945 622.118 44.3655 622.118C29.6365 622.118 17.6963 634.049 17.6963 648.766C17.6963 663.483 29.6365 675.414 44.3655 675.414Z" fill="white" stroke="black" stroke-width="1.74" stroke-miterlimit="10"/>
<path d="M434.35 319.029C442.197 319.029 448.557 312.673 448.557 304.833C448.557 296.993 442.197 290.637 434.35 290.637C426.504 290.637 420.144 296.993 420.144 304.833C420.144 312.673 426.504 319.029 434.35 319.029Z" fill="white" stroke="black" stroke-width="1.74" stroke-miterlimit="10"/>
<path d="M127.447 85.0079C135.156 85.0079 141.405 78.7638 141.405 71.0613C141.405 63.3588 135.156 57.1147 127.447 57.1147C119.738 57.1147 113.489 63.3588 113.489 71.0613C113.489 78.7638 119.738 85.0079 127.447 85.0079Z" fill="white" stroke="black" stroke-width="1.74" stroke-miterlimit="10"/>
<path d="M844.441 409.266C851.92 409.266 857.984 403.208 857.984 395.735C857.984 388.262 851.92 382.203 844.441 382.203C836.962 382.203 830.899 388.262 830.899 395.735C830.899 403.208 836.962 409.266 844.441 409.266Z" fill="white" stroke="black" stroke-width="1.74" stroke-miterlimit="10"/>
<path d="M415.379 163.992C416.131 150.12 405.895 138.288 392.516 137.564C379.138 136.84 367.683 147.498 366.931 161.37C366.179 175.242 376.415 187.074 389.794 187.798C403.172 188.522 414.627 177.863 415.379 163.992Z" fill="white" stroke="black" stroke-width="1.33" stroke-miterlimit="10"/>
<path d="M409.821 163.691C410.399 153.024 402.511 143.924 392.202 143.367C381.893 142.809 373.067 151.004 372.489 161.671C371.911 172.338 379.799 181.437 390.108 181.995C400.417 182.553 409.243 174.358 409.821 163.691Z" fill="white"/>
<path d="M409.904 163.691C410.482 153.024 402.594 143.924 392.285 143.367C381.976 142.809 373.15 151.004 372.572 161.671C371.994 172.338 379.882 181.437 390.191 181.995C400.5 182.553 409.326 174.358 409.904 163.691Z" stroke="black" stroke-width="1.33" stroke-miterlimit="10" stroke-linecap="round" stroke-dasharray="4 5.6"/>
<path d="M387.825 187.781C384.156 187.921 380.504 187.206 377.159 185.694C373.814 184.181 370.866 181.911 368.55 179.064C364.315 173.967 362.218 167.43 362.698 160.823C363.178 154.215 366.198 148.05 371.125 143.617C373.709 141.229 376.801 139.458 380.168 138.437C383.535 137.416 387.091 137.172 390.566 137.723C385.013 137.947 379.717 140.122 375.612 143.866C370.715 148.321 367.724 154.49 367.26 161.091C366.796 167.692 368.894 174.218 373.119 179.314C376.821 183.837 382.052 186.849 387.825 187.781Z" fill="white" stroke="black" stroke-width="1.33" stroke-miterlimit="10"/>
<path d="M373.701 141.542L378.27 141.791" stroke="black" stroke-width="1.33" stroke-miterlimit="10"/>
<path d="M367.22 148.017L371.79 148.266" stroke="black" stroke-width="1.33" stroke-miterlimit="10"/>
<path d="M363.98 154.492L368.55 154.741" stroke="black" stroke-width="1.33" stroke-miterlimit="10"/>
<path d="M362.651 162.129L367.22 162.461" stroke="black" stroke-width="1.33" stroke-miterlimit="10"/>
<path d="M363.648 169.684L368.217 169.85" stroke="black" stroke-width="1.33" stroke-miterlimit="10"/>
<path d="M366.473 176.159L371.042 176.408" stroke="black" stroke-width="1.33" stroke-miterlimit="10"/>
<path d="M372.122 182.551L376.608 182.8" stroke="black" stroke-width="1.33" stroke-miterlimit="10"/>
<path d="M79.0938 598.044H903.18" stroke="black" stroke-width="2" stroke-miterlimit="10" stroke-linecap="round"/>
<path d="M792.598 370.913V628.261C792.598 640.298 781.05 651.588 761.027 661.135L760.28 628.261L759.698 602.277L759.449 594.557L754.962 406.527C778.724 396.399 792.598 384.113 792.598 370.913Z" fill="white" stroke="black" stroke-width="2" stroke-miterlimit="10"/>
<path d="M579.826 434.337H356.42C356.42 418.564 364.23 406.444 376.027 397.146C394.471 382.618 422.719 374.898 446.563 370.83C461.339 368.265 476.273 366.712 491.261 366.181L497.243 370.913L579.826 434.337Z" fill="white" stroke="black" stroke-width="2" stroke-miterlimit="10"/>
<path d="M448.557 565.833V680.063C392.81 668.607 356.42 649.679 356.42 628.261V516.024C356.42 516.024 370.461 551.887 448.557 565.833Z" fill="white" stroke="black" stroke-width="2" stroke-miterlimit="10"/>
<path d="M792.598 370.913C792.598 384.113 778.723 396.399 754.962 406.527L579.826 370.913L491.344 312.221C518.947 308.979 546.717 307.371 574.509 307.406C694.977 307.406 792.598 335.798 792.598 370.913Z" fill="white" stroke="black" stroke-width="2" stroke-miterlimit="10"/>
<path d="M760.363 602.028L580.574 571.811V370.581L757.953 405.282L760.197 594.308L760.363 602.028Z" fill="white" stroke="black" stroke-width="2" stroke-miterlimit="10"/>
<path d="M579.909 434.337H356.503V515.966H579.909V434.337Z" fill="white" stroke="black" stroke-width="2" stroke-miterlimit="10"/>
<path d="M579.91 516.024V572.06L453.127 628.178L448.641 630.17V565.833L579.91 516.024Z" fill="white" stroke="black" stroke-width="2" stroke-miterlimit="10"/>
<path d="M579.078 516.356L448.557 565.833C373.369 552.219 357.666 518.93 356.503 516.19C356.503 516.146 356.52 516.104 356.552 516.073C356.583 516.042 356.625 516.024 356.669 516.024H578.995C579.039 516.013 579.086 516.02 579.125 516.043C579.164 516.067 579.192 516.105 579.203 516.149C579.214 516.193 579.207 516.239 579.184 516.278C579.16 516.317 579.122 516.345 579.078 516.356Z" fill="white" stroke="black" stroke-width="2" stroke-miterlimit="10"/>
<path d="M761.027 661.135C761.027 661.135 761.027 661.218 760.861 661.301H760.695C728.376 676.742 674.041 687.783 610.4 690.855H609.736C551.828 692.515 509.207 689.112 482.372 685.708H481.707C470.076 684.131 459.026 682.221 448.641 680.063H448.558V630.254C448.558 630.254 540.113 642.374 627.765 636.895C651.11 635.484 674.207 632.744 695.144 628.261C720.982 622.699 743.58 614.398 759.698 602.277L760.28 628.261L761.027 661.135Z" fill="white" stroke="black" stroke-width="2" stroke-miterlimit="10"/>
<path d="M579.826 370.913V434.337L491.261 365.932V312.221H491.344L579.826 370.913Z" stroke="black" stroke-width="2" stroke-miterlimit="10"/>
<path d="M759.283 602.194C759.327 602.183 759.373 602.19 759.412 602.213C759.451 602.237 759.479 602.275 759.49 602.319C759.501 602.363 759.494 602.409 759.471 602.448C759.448 602.487 759.41 602.515 759.366 602.526C743.248 614.48 720.733 622.699 695.144 628.261C674.207 632.744 651.11 635.483 627.764 636.895C545.597 642.042 460.106 631.665 449.638 630.336C449.571 630.347 449.504 630.332 449.449 630.293C449.395 630.254 449.358 630.195 449.347 630.129C449.336 630.063 449.351 629.995 449.39 629.941C449.429 629.886 449.488 629.849 449.554 629.838L453.127 628.261L579.826 572.143H579.909L759.283 602.194Z" fill="#06D087" stroke="black" stroke-width="2" stroke-miterlimit="10"/>
<path d="M370.627 434.337V516.024" stroke="black" stroke-width="2" stroke-miterlimit="10"/>
<path d="M385.665 434.337V516.024" stroke="black" stroke-width="2" stroke-miterlimit="10"/>
<path d="M400.702 434.337V516.024" stroke="black" stroke-width="2" stroke-miterlimit="10"/>
<path d="M415.74 434.337V516.024" stroke="black" stroke-width="2" stroke-miterlimit="10"/>
<path d="M430.778 434.337V516.024" stroke="black" stroke-width="2" stroke-miterlimit="10"/>
<path d="M445.815 434.337V516.024" stroke="black" stroke-width="2" stroke-miterlimit="10"/>
<path d="M460.854 434.337V516.024" stroke="black" stroke-width="2" stroke-miterlimit="10"/>
<path d="M475.974 434.337V516.024" stroke="black" stroke-width="2" stroke-miterlimit="10"/>
<path d="M491.012 434.337V516.024" stroke="black" stroke-width="2" stroke-miterlimit="10"/>
<path d="M506.05 434.337V516.024" stroke="black" stroke-width="2" stroke-miterlimit="10"/>
<path d="M521.087 434.337V516.024" stroke="black" stroke-width="2" stroke-miterlimit="10"/>
<path d="M536.125 434.337V516.024" stroke="black" stroke-width="2" stroke-miterlimit="10"/>
<path d="M551.163 434.337V516.024" stroke="black" stroke-width="2" stroke-miterlimit="10"/>
<path d="M566.284 434.337V516.024" stroke="black" stroke-width="2" stroke-miterlimit="10"/>
<path d="M499.652 317.7V372.407" stroke="black" stroke-width="2" stroke-miterlimit="10"/>
<path d="M506.714 322.349V377.886" stroke="black" stroke-width="2.01" stroke-miterlimit="10"/>
<path d="M513.776 326.998V383.283" stroke="black" stroke-width="2.03" stroke-miterlimit="10"/>
<path d="M520.838 331.564V388.762" stroke="black" stroke-width="2.04" stroke-miterlimit="10"/>
<path d="M527.9 336.213V394.24" stroke="black" stroke-width="2.06" stroke-miterlimit="10"/>
<path d="M534.962 340.862V399.637" stroke="black" stroke-width="2.07" stroke-miterlimit="10"/>
<path d="M542.024 345.427V405.116" stroke="black" stroke-width="2.09" stroke-miterlimit="10"/>
<path d="M549.003 350.076V410.511" stroke="black" stroke-width="2.1" stroke-miterlimit="10"/>
<path d="M556.065 354.725V415.991" stroke="black" stroke-width="2.12" stroke-miterlimit="10"/>
<path d="M563.127 359.374V421.47" stroke="black" stroke-width="2.13" stroke-miterlimit="10"/>
<path d="M570.189 363.94V426.866" stroke="black" stroke-width="2.14" stroke-miterlimit="10"/>
<path d="M458.361 562.098V625.937" stroke="black" stroke-width="2.14" stroke-miterlimit="10"/>
<path d="M469.743 557.781V620.873" stroke="black" stroke-width="2.14" stroke-miterlimit="10"/>
<path d="M481.125 553.464V615.809" stroke="black" stroke-width="2.14" stroke-miterlimit="10"/>
<path d="M492.507 549.147V610.745" stroke="black" stroke-width="2.14" stroke-miterlimit="10"/>
<path d="M503.89 544.831V605.764" stroke="black" stroke-width="2.14" stroke-miterlimit="10"/>
<path d="M515.355 540.514V600.7" stroke="black" stroke-width="2.14" stroke-miterlimit="10"/>
<path d="M526.737 536.197V595.636" stroke="black" stroke-width="2.14" stroke-miterlimit="10"/>
<path d="M538.119 531.88V590.572" stroke="black" stroke-width="2.14" stroke-miterlimit="10"/>
<path d="M549.501 527.563V585.508" stroke="black" stroke-width="2.14" stroke-miterlimit="10"/>
<path d="M560.884 523.164V580.527" stroke="black" stroke-width="2.14" stroke-miterlimit="10"/>
<path d="M572.266 518.847V575.463" stroke="black" stroke-width="2.14" stroke-miterlimit="10"/>
<path d="M700.635 433.178L672.512 450.398L679.315 461.489L707.437 444.269L700.635 433.178Z" fill="white" stroke="black" stroke-width="1.85" stroke-miterlimit="10"/>
<path d="M593.452 180.725L606.163 171.344C607.203 170.677 608.463 170.442 609.674 170.69C610.885 170.938 611.951 171.65 612.644 172.672C613.434 173.642 613.807 174.885 613.683 176.13C613.558 177.374 612.946 178.519 611.979 179.313L599.267 188.611" fill="white"/>
<path d="M593.452 180.725L606.163 171.344C607.203 170.677 608.463 170.442 609.674 170.69C610.885 170.938 611.951 171.65 612.644 172.672C613.434 173.642 613.807 174.885 613.683 176.13C613.558 177.374 612.946 178.519 611.979 179.313L599.267 188.611" stroke="black" stroke-width="1.84" stroke-miterlimit="10" stroke-linecap="round"/>
<path d="M625.521 263.989C618.293 263.989 611.065 258.012 594.864 258.012C578.663 258.012 591.541 242.571 594.864 236.013C598.187 229.455 583.482 231.364 584.23 223.063C584.978 214.761 606.662 218.414 601.262 209.614C595.861 200.815 625.272 200.482 631.337 175.91C637.402 151.337 658.339 153.413 658.339 153.413C658.339 153.413 689.66 145.277 699.796 187.947C708.188 223.561 745.242 215.674 734.275 231.862C724.638 245.975 739.011 259.507 730.536 263.906C722.062 268.306 702.039 265.484 702.039 265.484L625.521 263.989Z" fill="#06D087"/>
<path d="M718.764 238.528C712.859 232.628 703.285 232.628 697.38 238.528C691.475 244.429 691.475 253.995 697.38 259.895L727.694 290.185C733.599 296.085 743.173 296.085 749.078 290.185C754.983 284.285 754.983 274.718 749.078 268.818L718.764 238.528Z" fill="black" stroke="black" stroke-width="2.18" stroke-miterlimit="10" stroke-linecap="round"/>
<path d="M783.528 267.798C790.483 263.181 792.376 253.803 787.754 246.853C783.133 239.903 773.748 238.012 766.792 242.629L731.085 266.334C724.129 270.952 722.237 280.33 726.858 287.28C731.479 294.23 740.865 296.121 747.82 291.503L783.528 267.798Z" fill="white" stroke="black" stroke-width="2.18" stroke-miterlimit="10" stroke-linecap="round"/>
<path d="M598.35 206.489C592.58 200.456 583.008 200.239 576.971 206.004C570.933 211.769 570.716 221.333 576.486 227.366L606.104 258.335C611.874 264.368 621.445 264.585 627.483 258.82C633.52 253.055 633.737 243.491 627.968 237.458L598.35 206.489Z" fill="black" stroke="black" stroke-width="2.18" stroke-miterlimit="10" stroke-linecap="round"/>
<path d="M598.271 170.68C597.63 162.36 590.361 156.135 582.034 156.775C573.708 157.415 567.477 164.678 568.118 172.998L571.407 215.708C572.048 224.028 579.317 230.253 587.643 229.613C595.97 228.973 602.2 221.709 601.56 213.39L598.271 170.68Z" fill="white" stroke="black" stroke-width="2" stroke-miterlimit="10" stroke-linecap="round"/>
<path d="M702.87 234.768H625.355V340.471H702.87V234.768Z" fill="white" stroke="black" stroke-width="2" stroke-miterlimit="10" stroke-linecap="round"/>
<path d="M663.908 245.632L662.996 245.688C659.235 245.918 655.537 244.645 652.715 242.151C649.893 239.656 648.178 236.143 647.948 232.385L646.756 212.913L676.029 211.124L677.221 230.596C677.451 234.354 676.178 238.05 673.681 240.869C671.184 243.689 667.669 245.402 663.908 245.632Z" fill="white" stroke="black" stroke-width="2" stroke-miterlimit="10"/>
<path d="M676.7 219.576C676.7 219.576 671.798 230.285 663.822 231.613C654.268 233.273 650.446 227.047 647.538 222.897L676.7 219.576Z" fill="black" stroke="black" stroke-width="2" stroke-miterlimit="10"/>
<path d="M628.927 199.154C629.223 200.442 629.974 201.58 631.043 202.358C632.112 203.136 633.426 203.502 634.743 203.388H635.242C637.734 211.773 644.464 224.557 653.52 227.047C667.477 230.783 681.933 218.248 685.506 202.807C687.169 203.043 688.861 202.656 690.257 201.722C691.652 200.787 692.653 199.37 693.066 197.743C693.305 196.865 693.367 195.949 693.249 195.048C693.131 194.146 692.836 193.276 692.38 192.489C691.924 191.702 691.317 191.013 690.594 190.461C689.87 189.91 689.045 189.507 688.165 189.275C687.597 189.111 687.01 189.027 686.42 189.026C686.124 189.01 685.841 188.907 685.604 188.73C685.367 188.552 685.189 188.309 685.09 188.03C683.36 182.68 679.944 178.032 675.354 174.781C670.763 171.529 665.243 169.848 659.618 169.988C653.992 170.128 648.563 172.082 644.14 175.558C639.717 179.034 636.537 183.846 635.075 189.275C634.826 190.438 634.577 191.6 634.411 192.762H634.162C633.374 192.773 632.598 192.955 631.889 193.297C631.18 193.639 630.554 194.132 630.055 194.741C629.556 195.35 629.197 196.06 629.002 196.823C628.808 197.585 628.782 198.381 628.927 199.154Z" fill="white" stroke="black" stroke-width="2" stroke-miterlimit="10"/>
<path d="M652.107 187.449C649.139 187.421 646.277 188.553 644.131 190.604" stroke="black" stroke-width="2" stroke-miterlimit="10" stroke-linecap="round"/>
<path d="M634.411 192.596C642.138 192.762 655.763 170.265 655.763 170.265C655.763 170.265 667.893 188.777 685.755 188.694C685.755 188.694 684.592 160.22 657.425 162.544C630.257 164.869 634.411 192.596 634.411 192.596Z" fill="#06D087" stroke="black" stroke-width="2" stroke-miterlimit="10"/>
<path d="M671.217 196.571C671.347 195.247 670.785 194.109 669.963 194.029C669.141 193.948 668.37 194.956 668.24 196.279C668.11 197.602 668.671 198.74 669.493 198.821C670.315 198.901 671.087 197.894 671.217 196.571Z" fill="black"/>
<path d="M656.51 195.917L651.941 206.792C651.916 206.868 651.907 206.948 651.914 207.028C651.922 207.108 651.946 207.186 651.985 207.256C652.024 207.326 652.077 207.388 652.141 207.436C652.205 207.485 652.278 207.52 652.356 207.539L658.588 208.037" stroke="black" stroke-width="2" stroke-miterlimit="10" stroke-linecap="round"/>
<path d="M689.494 193.177L685.839 196.83C685.756 196.913 685.756 196.996 685.839 196.996L689.494 198.739" stroke="black" stroke-width="2" stroke-miterlimit="10" stroke-linecap="round"/>
<path d="M634.66 197.494C634.66 197.494 634.245 199.32 635.242 203.305" stroke="black" stroke-width="2" stroke-miterlimit="10" stroke-linecap="round"/>
<path d="M650.978 194.62C651.108 193.296 650.547 192.158 649.725 192.078C648.903 191.997 648.132 193.005 648.002 194.328C647.872 195.651 648.433 196.789 649.255 196.87C650.077 196.95 650.849 195.943 650.978 194.62Z" fill="black"/>
<path d="M675.453 191.434C674.366 190.396 673.07 189.6 671.653 189.099C670.235 188.599 668.727 188.404 667.228 188.528" stroke="black" stroke-width="2" stroke-miterlimit="10" stroke-linecap="round"/>
<path d="M667.228 209.78C667.228 209.78 665.566 219.908 654.766 216.338" stroke="black" stroke-width="2" stroke-miterlimit="10" stroke-linecap="round"/>
<path d="M568.444 175.744L567.032 157.314C566.951 156.649 567.003 155.973 567.185 155.328C567.368 154.683 567.676 154.08 568.094 153.555C568.511 153.03 569.029 152.592 569.617 152.269C570.204 151.945 570.851 151.741 571.518 151.669C572.184 151.636 572.849 151.734 573.477 151.958C574.105 152.182 574.682 152.527 575.176 152.974C575.67 153.422 576.071 153.962 576.356 154.564C576.64 155.166 576.803 155.819 576.835 156.484L578.081 171.593" fill="white"/>
<path d="M568.444 175.744L567.032 157.314C566.951 156.649 567.003 155.973 567.185 155.328C567.368 154.683 567.676 154.08 568.094 153.555C568.511 153.03 569.029 152.592 569.617 152.269C570.204 151.945 570.851 151.741 571.518 151.669V151.669C572.184 151.636 572.849 151.734 573.477 151.958C574.105 152.182 574.682 152.527 575.176 152.974C575.67 153.422 576.071 153.962 576.356 154.564C576.64 155.166 576.803 155.819 576.835 156.484L578.081 171.593" stroke="black" stroke-width="2" stroke-miterlimit="10" stroke-linecap="round"/>
<path d="M702.87 340.447H625.355V370.888H702.87V340.447Z" fill="#06D087" stroke="black" stroke-width="2" stroke-miterlimit="10" stroke-linecap="round"/>
<path d="M621.923 338.857C628.085 335.084 635.495 333.911 642.523 335.597C649.55 337.283 655.62 341.689 659.396 347.846L709.708 429.883L663.309 458.294L612.997 376.257C609.221 370.1 608.047 362.696 609.734 355.674C611.421 348.652 615.831 342.587 621.993 338.814L621.923 338.857Z" fill="#06D087" stroke="black" stroke-width="1.85" stroke-miterlimit="10"/>
<path d="M658.309 446.29L631.263 427.505L623.842 438.172L650.888 456.957L658.309 446.29Z" fill="white" stroke="black" stroke-width="1.8475" stroke-miterlimit="10"/>
<path d="M718.414 338.32C721.359 340.35 723.876 342.94 725.82 345.943C727.763 348.945 729.096 352.3 729.742 355.817C730.388 359.334 730.335 362.944 729.585 366.44C728.835 369.937 727.403 373.251 725.37 376.195L670.692 455.393L625.83 424.469L680.508 345.271C682.54 342.328 685.133 339.813 688.137 337.871C691.142 335.928 694.5 334.597 698.02 333.951C701.54 333.306 705.152 333.359 708.652 334.109C712.151 334.858 715.468 336.289 718.414 338.32Z" fill="#06D087" stroke="black" stroke-width="1.85" stroke-miterlimit="10"/>
<path d="M578.081 171.593L576.669 153.911C576.42 150.673 578.58 147.85 581.488 147.684C584.313 147.435 586.888 149.843 587.137 153.08L588.467 170.431" fill="white"/>
<path d="M578.081 171.593L576.669 153.911C576.42 150.673 578.58 147.85 581.488 147.684C584.313 147.435 586.888 149.843 587.137 153.08L588.467 170.431" stroke="black" stroke-width="2" stroke-miterlimit="10" stroke-linecap="round"/>
<path d="M588.467 170.431L587.304 155.488C587.187 154.148 587.6 152.816 588.454 151.776C589.308 150.737 590.535 150.073 591.873 149.926C592.539 149.892 593.205 149.99 593.832 150.214C594.46 150.438 595.037 150.784 595.531 151.231C596.025 151.678 596.426 152.219 596.711 152.821C596.995 153.423 597.158 154.075 597.19 154.741L598.603 173.253" fill="white"/>
<path d="M588.467 170.431L587.304 155.488C587.187 154.148 587.6 152.816 588.454 151.776C589.308 150.737 590.535 150.073 591.873 149.926V149.926C592.539 149.892 593.205 149.99 593.832 150.214C594.46 150.438 595.037 150.784 595.531 151.231C596.025 151.678 596.426 152.219 596.711 152.821C596.995 153.423 597.158 154.075 597.19 154.741L598.603 173.253" stroke="black" stroke-width="2" stroke-miterlimit="10" stroke-linecap="round"/>
<path d="M795.983 274.629L768.003 228.282L762.354 231.687L790.335 278.034L795.983 274.629Z" fill="white" stroke="black" stroke-width="2" stroke-miterlimit="10"/>
<path d="M800.408 172.672C801.107 174.544 801.423 176.537 801.337 178.534C801.251 180.53 800.766 182.489 799.909 184.294C799.558 185.075 799.141 185.825 798.663 186.536L797.832 187.781C796.129 190.06 794.016 192.003 791.601 193.509C790.426 194.2 789.204 194.81 787.946 195.335H787.696L786.035 191.185C786.576 190.97 787.104 190.72 787.613 190.438C794.094 187.2 797.5 180.31 795.257 174.582C793.014 168.854 787.779 167.027 781.714 167.691C780.178 167.853 778.67 168.216 777.228 168.77L775.566 164.62C776.954 164.042 778.404 163.624 779.887 163.374C784.655 162.35 789.633 163.057 793.927 165.367C796.871 166.977 799.162 169.559 800.408 172.672Z" fill="black" stroke="black" stroke-width="2" stroke-miterlimit="10"/>
<path d="M702.87 221.07C706.359 226.632 714.834 227.794 721.73 223.561L724.056 227.379C714.668 233.19 702.953 231.696 698.134 223.976C693.316 216.255 697.221 205.131 706.609 199.237L709.018 203.056C702.122 207.373 699.381 215.425 702.87 221.07Z" fill="black" stroke="black" stroke-width="2" stroke-miterlimit="10"/>
<path d="M777.561 161.714C777.976 162.461 778.308 163.291 778.641 164.039C779.362 165.439 780 166.88 780.551 168.355C783.592 175.642 785.551 183.333 786.367 191.185C786.533 192.762 786.699 194.339 786.783 195.917C787.198 207.622 784.872 218.248 779.804 226.217C778.191 228.746 776.265 231.061 774.071 233.107L772.493 234.436L770.748 235.681C769.647 236.496 768.48 237.218 767.258 237.839C766.048 238.423 764.799 238.922 763.52 239.334C750.725 243.733 735.438 239.251 722.062 228.459L719.071 225.802C718.813 225.654 718.587 225.457 718.406 225.221C713.701 220.849 709.519 215.946 705.944 210.61L703.701 207.207C702.87 205.878 702.122 204.467 701.375 203.056L700.045 200.648L777.561 161.714Z" fill="white" stroke="black" stroke-width="2" stroke-miterlimit="10"/>
<path d="M775.373 156.956L697.885 195.897L700.005 200.11L777.494 161.168L775.373 156.956Z" fill="#06D087" stroke="black" stroke-width="2" stroke-miterlimit="10"/>
<path d="M749.645 235.183L747.984 230.617C747.995 230.573 747.988 230.526 747.964 230.487C747.941 230.448 747.903 230.42 747.859 230.409C747.815 230.398 747.768 230.405 747.729 230.429C747.69 230.452 747.662 230.49 747.651 230.534L744.079 234.685C743.996 234.768 743.746 234.768 743.746 234.602L741.503 229.455C741.42 229.372 741.254 229.289 741.171 229.455L738.263 233.19C738.241 233.234 738.202 233.268 738.156 233.283C738.109 233.299 738.058 233.295 738.014 233.273C737.97 233.251 737.936 233.213 737.921 233.166C737.905 233.119 737.909 233.068 737.931 233.024L740.423 217.999C740.423 217.932 740.449 217.869 740.496 217.822C740.543 217.776 740.606 217.75 740.672 217.75L752.47 219.742C752.553 219.742 752.636 219.908 752.636 219.991L750.061 235.1C750.061 235.349 749.728 235.349 749.645 235.183Z" fill="white" stroke="black" stroke-width="2" stroke-miterlimit="10"/>
<path d="M776.231 221.817L773.573 217.75C773.56 217.717 773.554 217.682 773.555 217.647C773.557 217.612 773.566 217.578 773.581 217.546C773.597 217.515 773.619 217.487 773.646 217.465C773.673 217.443 773.705 217.427 773.739 217.417L779.222 217.002C779.305 217.002 779.471 216.836 779.388 216.753L776.564 211.938C776.48 211.772 776.564 211.606 776.73 211.606H781.465C781.715 211.606 781.798 211.357 781.548 211.191L767.923 204.218H767.674L762.19 214.844C762.19 214.927 762.19 215.093 762.273 215.093L775.982 222.149C776.148 222.232 776.397 221.983 776.231 221.817Z" fill="white" stroke="black" stroke-width="2" stroke-miterlimit="10"/>
<path d="M749.978 221.9C760.256 221.9 768.588 213.575 768.588 203.305C768.588 193.035 760.256 184.709 749.978 184.709C739.699 184.709 731.367 193.035 731.367 203.305C731.367 213.575 739.699 221.9 749.978 221.9Z" fill="#06D087" stroke="black" stroke-width="2" stroke-miterlimit="10"/>
<path d="M749.977 214.512C756.172 214.512 761.193 209.494 761.193 203.305C761.193 197.115 756.172 192.098 749.977 192.098C743.783 192.098 738.761 197.115 738.761 203.305C738.761 209.494 743.783 214.512 749.977 214.512Z" fill="white" stroke="black" stroke-width="2" stroke-miterlimit="10"/>
<path d="M799.143 274.438L793.521 265.126L783.106 271.404L788.728 280.716L799.143 274.438Z" fill="white" stroke="black" stroke-width="2" stroke-miterlimit="10"/>
<path d="M811.625 278.742L804.201 266.445L779.615 281.264L787.039 293.562L811.625 278.742Z" fill="white" stroke="black" stroke-width="2" stroke-miterlimit="10"/>
<path d="M784.622 255.023L769.252 265.566C766.593 267.31 763.104 266.812 761.442 264.404C759.864 261.997 760.778 258.593 763.436 256.767L778.64 246.639" fill="white"/>
<path d="M784.622 255.023L769.252 265.566C766.593 267.31 763.104 266.812 761.442 264.404C759.864 261.997 760.778 258.593 763.436 256.767L778.64 246.639" stroke="black" stroke-width="2" stroke-miterlimit="10" stroke-linecap="round"/>
<path d="M778.64 246.639L765.43 255.439C764.894 255.836 764.283 256.121 763.635 256.278C762.986 256.434 762.312 256.459 761.653 256.351C760.995 256.242 760.365 256.003 759.8 255.647C759.236 255.29 758.749 254.824 758.369 254.276C758.019 253.71 757.784 253.08 757.679 252.422C757.573 251.765 757.598 251.093 757.752 250.445C757.906 249.798 758.187 249.187 758.578 248.648C758.969 248.108 759.462 247.651 760.03 247.303L772.659 238.918C775.872 236.716 779.648 235.478 783.542 235.349C787.53 235.183 792.1 236.262 795.423 240.496C802.485 249.544 797.998 258.261 792.349 262.08L776.896 272.291C775.791 273.075 774.422 273.393 773.084 273.175C771.747 272.958 770.549 272.222 769.751 271.129C769.401 270.562 769.166 269.932 769.061 269.274C768.955 268.617 768.98 267.945 769.134 267.298C769.289 266.65 769.569 266.039 769.96 265.5C770.351 264.96 770.845 264.504 771.412 264.155L784.373 255.19" fill="white"/>
<path d="M778.64 246.639L765.43 255.439C764.894 255.836 764.283 256.121 763.635 256.278C762.986 256.434 762.312 256.459 761.653 256.351C760.995 256.242 760.365 256.003 759.8 255.647C759.236 255.29 758.749 254.824 758.369 254.276V254.276C758.019 253.71 757.784 253.08 757.679 252.422C757.573 251.765 757.598 251.093 757.752 250.445C757.906 249.798 758.187 249.187 758.578 248.648C758.969 248.108 759.462 247.651 760.03 247.303L772.659 238.918C775.872 236.716 779.648 235.478 783.542 235.349C787.53 235.183 792.1 236.262 795.423 240.496C802.485 249.544 797.998 258.261 792.349 262.08L776.896 272.291C775.791 273.075 774.422 273.393 773.084 273.175C771.747 272.958 770.549 272.222 769.751 271.129V271.129C769.401 270.562 769.166 269.932 769.061 269.274C768.955 268.617 768.98 267.945 769.134 267.298C769.289 266.65 769.569 266.039 769.96 265.5C770.351 264.96 770.845 264.504 771.412 264.155L784.373 255.19" stroke="black" stroke-width="2" stroke-miterlimit="10" stroke-linecap="round"/>
<path d="M657.341 481.241L607.326 446.872C607.047 446.688 606.817 446.439 606.655 446.146C606.493 445.854 606.404 445.526 606.396 445.192C606.388 444.858 606.461 444.527 606.608 444.227C606.756 443.926 606.974 443.666 607.243 443.469L618.21 435.084C620.139 433.599 622.492 432.766 624.927 432.706C627.362 432.646 629.752 433.363 631.752 434.752L657.591 452.517C659.573 453.92 661.069 455.905 661.873 458.195C662.677 460.485 662.748 462.969 662.077 465.302L657.341 481.241Z" fill="white" stroke="black" stroke-width="2" stroke-miterlimit="10"/>
<path d="M631.566 444.314L648.937 456.288C653.689 459.564 656.944 464.591 657.986 470.265C659.028 475.939 657.772 481.794 654.494 486.542L645.813 499.115C644.837 500.529 643.339 501.497 641.649 501.807C639.958 502.117 638.214 501.743 636.799 500.768L593.852 471.164C592.437 470.189 591.468 468.692 591.157 467.003C590.847 465.314 591.221 463.571 592.197 462.157L600.595 449.994C603.948 445.137 609.095 441.81 614.903 440.745C620.711 439.68 626.705 440.964 631.566 444.314Z" fill="white" stroke="black" stroke-width="2" stroke-miterlimit="10"/>
<path d="M649.864 493.444L596.525 456.087L592.787 461.4C591.718 462.981 591.312 464.917 591.653 466.794C591.995 468.671 593.058 470.341 594.615 471.445L636.405 500.251C637.987 501.319 639.925 501.725 641.803 501.384C643.682 501.043 645.352 499.981 646.458 498.425L649.864 493.444Z" fill="black" stroke="black" stroke-width="2" stroke-miterlimit="10"/>
<path d="M631.752 444.299C631.755 446.205 632.186 448.087 633.016 449.804C633.845 451.521 635.05 453.03 636.543 454.218C638.035 455.406 639.776 456.243 641.636 456.667C643.496 457.092 645.428 457.092 647.289 456.668L649.116 456.253L631.752 444.299Z" fill="black" stroke="black" stroke-width="2" stroke-miterlimit="10"/>
<path d="M674.872 485.06L727.13 454.178C727.405 453.996 727.634 453.753 727.8 453.469C727.967 453.184 728.066 452.866 728.09 452.537C728.114 452.209 728.062 451.879 727.939 451.573C727.816 451.268 727.624 450.994 727.379 450.774L717.077 441.725C715.245 440.111 712.951 439.115 710.52 438.876C708.09 438.638 705.646 439.17 703.535 440.397L676.533 456.419C674.438 457.661 672.793 459.538 671.837 461.777C670.881 464.016 670.663 466.501 671.216 468.872L674.872 485.06Z" fill="white" stroke="black" stroke-width="2" stroke-miterlimit="10"/>
<path d="M737.324 479.651L695.176 504.657C693.338 505.748 691.142 506.064 689.071 505.536C687 505.009 685.223 503.681 684.132 501.845L677.133 490.067C674.186 485.107 673.331 479.18 674.757 473.59C676.183 468 679.773 463.206 684.737 460.26L702.882 449.495C705.403 447.987 708.197 446.992 711.104 446.568C714.011 446.144 716.974 446.299 719.821 447.024C722.668 447.749 725.343 449.03 727.692 450.793C730.041 452.556 732.018 454.766 733.509 457.296L740.168 468.503C740.725 469.418 741.094 470.436 741.252 471.495C741.411 472.555 741.356 473.636 741.091 474.674C740.826 475.712 740.357 476.688 739.71 477.542C739.063 478.397 738.252 479.114 737.324 479.651Z" fill="white" stroke="black" stroke-width="2" stroke-miterlimit="10"/>
<path d="M681.518 497.844L737.266 464.139L741.171 470.698C741.965 472.09 742.184 473.737 741.781 475.287C741.377 476.838 740.383 478.17 739.01 478.999L693.482 506.062C692.795 506.466 692.034 506.731 691.245 506.841C690.455 506.951 689.651 506.905 688.88 506.704C688.108 506.504 687.384 506.153 686.748 505.673C686.112 505.192 685.577 504.591 685.174 503.904L681.518 497.844Z" fill="black" stroke="black" stroke-width="2" stroke-miterlimit="10"/>
<path d="M702.87 449.944C702.752 451.846 702.204 453.696 701.268 455.357C700.332 457.017 699.032 458.444 697.465 459.53C695.898 460.617 694.105 461.334 692.221 461.629C690.337 461.924 688.411 461.789 686.586 461.234L684.758 460.736L702.87 449.944Z" fill="black" stroke="black" stroke-width="2" stroke-miterlimit="10"/>
<path d="M647.621 233.107L661.08 290.554L677.281 232.775H685.506L661.08 294.29L638.731 233.107H647.621Z" fill="white" stroke="black" stroke-width="2.26" stroke-miterlimit="10" stroke-linecap="round"/>
<path d="M661.08 302.093C667.458 302.093 672.628 296.927 672.628 290.554C672.628 284.181 667.458 279.015 661.08 279.015C654.702 279.015 649.532 284.181 649.532 290.554C649.532 296.927 654.702 302.093 661.08 302.093Z" fill="white" stroke="black" stroke-width="2.26" stroke-miterlimit="10" stroke-linecap="round"/>
<path d="M661.08 297.195C664.751 297.195 667.727 294.222 667.727 290.554C667.727 286.886 664.751 283.913 661.08 283.913C657.409 283.913 654.434 286.886 654.434 290.554C654.434 294.222 657.409 297.195 661.08 297.195Z" fill="#06D087" stroke="black" stroke-width="1.3" stroke-miterlimit="10" stroke-linecap="round"/>
<path d="M175.349 363.587L220.725 403.42C229.309 410.954 242.38 410.11 249.921 401.533L249.926 401.527C257.467 392.95 256.622 379.89 248.038 372.355L202.662 332.522C194.078 324.988 181.007 325.832 173.466 334.409L173.461 334.415C165.92 342.992 166.765 356.052 175.349 363.587Z" fill="white" stroke="black" stroke-width="2.6" stroke-miterlimit="10"/>
<path d="M151.291 660.056H188.512C193.734 660.056 198.742 662.129 202.435 665.819C206.128 669.508 208.202 674.513 208.202 679.731V694.591C208.202 697.519 207.038 700.327 204.966 702.398C202.894 704.468 200.083 705.632 197.152 705.632H142.651C139.72 705.632 136.91 704.468 134.838 702.398C132.765 700.327 131.601 697.519 131.601 694.591V679.648C131.623 674.444 133.707 669.461 137.398 665.789C141.088 662.118 146.084 660.056 151.291 660.056Z" fill="white" stroke="black" stroke-width="2" stroke-miterlimit="10"/>
<path d="M271.38 636.573L242.786 639.525L245.188 662.754L273.782 659.801L271.38 636.573Z" fill="#06D087" stroke="black" stroke-width="2" stroke-miterlimit="10"/>
<path d="M254.063 471.86H169.735V432.76H252.318L254.063 471.86Z" fill="white" stroke="white" stroke-width="2" stroke-miterlimit="10"/>
<path d="M206.873 476.924L211.359 511.708L202.386 642.042L137.25 635.65L170.068 442.556" fill="white"/>
<path d="M206.873 476.924L211.359 511.708L202.386 642.042L137.25 635.65L170.068 442.556" stroke="black" stroke-width="2" stroke-miterlimit="10"/>
<path d="M252.651 442.473L285.551 635.567L220.332 641.959L201.39 477.92" fill="white"/>
<path d="M252.651 442.473L285.551 635.567L220.332 641.959L201.39 477.92" stroke="black" stroke-width="2" stroke-miterlimit="10"/>
<path d="M253.066 446.54H169.735V354.476C169.731 348.62 171.994 342.99 176.052 338.765C180.11 334.54 185.647 332.049 191.503 331.813L219.418 330.734C223.51 330.567 227.594 331.219 231.43 332.652C235.267 334.084 238.778 336.268 241.758 339.076C244.737 341.883 247.126 345.257 248.782 348.999C250.439 352.741 251.33 356.777 251.405 360.868C251.986 395.818 253.066 446.54 253.066 446.54Z" fill="black" stroke="black" stroke-width="2" stroke-miterlimit="10"/>
<path d="M200.559 316.04H224.32V328.658C224.32 330.111 223.742 331.505 222.714 332.533C221.686 333.56 220.291 334.137 218.837 334.137H203.55C202.778 334.137 202.039 333.831 201.493 333.286C200.948 332.741 200.642 332.002 200.642 331.232V316.04H200.559Z" fill="white" stroke="black" stroke-width="2" stroke-miterlimit="10" stroke-linecap="round"/>
<path d="M150.46 660.153L179.059 663.056L181.42 639.823L152.821 636.921L150.46 660.153Z" fill="#06D087" stroke="black" stroke-width="2" stroke-miterlimit="10"/>
<path d="M246.337 295.535L239.773 300.101C239.69 300.101 239.607 300.184 239.607 300.35C236.118 312.221 226.065 321.021 213.603 321.021C199.728 321.021 188.263 310.063 186.601 295.95H186.352C185.479 295.896 184.626 295.67 183.84 295.286C183.055 294.902 182.352 294.367 181.774 293.712C180.605 292.388 180.011 290.655 180.121 288.894C180.231 287.133 181.037 285.487 182.361 284.319C183.686 283.152 185.42 282.558 187.183 282.668H187.598C187.847 282.751 188.097 282.668 188.097 282.419C192.085 272.042 202.054 265.234 213.603 263.74C225.151 262.246 235.702 265.816 239.524 279.098L246.42 294.954C246.47 295.047 246.488 295.154 246.473 295.258C246.458 295.363 246.411 295.46 246.337 295.535Z" fill="white" stroke="black" stroke-width="2" stroke-miterlimit="10"/>
<path d="M190.173 283.83C190.173 283.83 195.158 285.49 196.072 283.415C196.986 281.34 200.06 272.706 204.879 272.623C209.698 272.54 240.355 274.117 245.838 268.306C251.322 262.495 250.075 250.707 240.853 252.865C240.853 252.865 243.096 242.405 233.127 242.073C223.157 241.741 224.569 251.537 224.569 251.537C224.569 251.537 209.947 242.239 201.556 251.371C201.556 251.371 174.388 247.884 171.148 279.098C167.908 310.312 194.244 312.47 194.244 312.47C194.244 312.47 186.518 304.75 186.601 295.95C186.601 295.95 180.287 296.199 179.705 288.645C179.705 288.645 180.785 281.506 188.013 283.249L190.173 283.83Z" fill="black"/>
<path d="M234.705 309.897C234.705 309.897 228.557 308.735 228.474 299.769" stroke="black" stroke-width="1.99" stroke-miterlimit="10" stroke-linecap="round"/>
<path d="M232.379 275.944C232.379 275.944 228.474 275.196 224.652 280.343" stroke="black" stroke-width="1.99" stroke-miterlimit="10" stroke-linecap="round"/>
<path d="M233.718 284.27C233.722 282.482 232.869 281.031 231.813 281.029C230.758 281.027 229.9 282.475 229.897 284.263C229.894 286.051 230.747 287.502 231.802 287.504C232.857 287.506 233.715 286.058 233.718 284.27Z" fill="black"/>
<path d="M246.586 660.056H294.441C304.687 660.056 314.513 664.123 321.758 671.363C329.004 678.602 333.074 688.42 333.074 698.658V699.323C333.074 701.018 332.4 702.644 331.2 703.842C330 705.041 328.373 705.715 326.677 705.715H248.248C245.493 705.715 242.852 704.621 240.904 702.675C238.956 700.729 237.862 698.09 237.862 695.338V668.773C237.862 666.461 238.781 664.244 240.417 662.609C242.053 660.975 244.272 660.056 246.586 660.056Z" fill="white" stroke="black" stroke-width="2" stroke-miterlimit="10"/>
<path d="M237.862 687.534C237.862 687.534 254.312 686.953 261.956 693.179C269.599 699.406 326.344 704.054 332.326 691.187" stroke="black" stroke-width="2" stroke-miterlimit="10"/>
<path d="M272.424 649.596C272.424 649.596 260.128 650.592 259.297 659.724H273.255L272.424 649.596Z" fill="black" stroke="black" stroke-width="2" stroke-miterlimit="10"/>
<path d="M281.148 660.056V672.01" stroke="black" stroke-width="2" stroke-miterlimit="10"/>
<path d="M288.293 660.056V672.01" stroke="black" stroke-width="2" stroke-miterlimit="10"/>
<path d="M272.923 654.992L266.276 655.324" stroke="black" stroke-width="2" stroke-miterlimit="10"/>
<path d="M150.045 657.732H179.955C184.979 657.732 189.797 659.726 193.349 663.275C196.902 666.825 198.897 671.639 198.897 676.659V694.923C198.908 696.325 198.641 697.716 198.112 699.014C197.582 700.313 196.801 701.495 195.812 702.49C194.823 703.486 193.647 704.276 192.352 704.815C191.056 705.354 189.666 705.632 188.263 705.632H141.737C138.917 705.632 136.212 704.512 134.217 702.519C132.223 700.527 131.103 697.824 131.103 695.006V676.742C131.092 674.25 131.574 671.779 132.521 669.473C133.468 667.167 134.861 665.071 136.621 663.305C138.381 661.538 140.473 660.137 142.777 659.18C145.081 658.224 147.551 657.732 150.045 657.732Z" fill="white" stroke="black" stroke-width="2" stroke-miterlimit="10"/>
<path d="M198.897 691.768C162.84 680.727 131.02 691.768 131.02 691.768H198.897Z" fill="white"/>
<path d="M198.897 691.768C162.84 680.727 131.02 691.768 131.02 691.768" stroke="black" stroke-width="2" stroke-miterlimit="10"/>
<path d="M208.202 689.361C208.202 689.361 202.054 694.425 198.897 691.768L208.202 689.361Z" fill="white"/>
<path d="M208.202 689.361C208.202 689.361 202.054 694.425 198.897 691.768" stroke="black" stroke-width="2" stroke-miterlimit="10"/>
<path d="M174.305 657.732C174.288 656.04 174.821 654.388 175.825 653.025C176.829 651.663 178.249 650.663 179.872 650.177V657.732H174.305Z" fill="black" stroke="black" stroke-width="2" stroke-miterlimit="10"/>
<path d="M273.01 388.697L323.148 360.584C330.63 356.388 333.292 346.926 329.093 339.449L328.333 338.095C324.134 330.618 314.664 327.959 307.181 332.154L257.044 360.268C249.561 364.464 246.899 373.926 251.098 381.403L251.858 382.757C256.057 390.233 265.527 392.893 273.01 388.697Z" fill="white" stroke="black" stroke-width="2.26" stroke-miterlimit="10"/>
<path d="M323.935 349.495L335.566 341.277C338.557 339.201 342.13 339.866 343.625 342.854C345.204 345.76 344.041 349.827 341.133 351.903L319.033 367.178" fill="white"/>
<path d="M323.935 349.495L335.566 341.277C338.557 339.201 342.13 339.866 343.625 342.854C345.204 345.76 344.041 349.827 341.133 351.903L319.033 367.178" stroke="black" stroke-width="2.26" stroke-miterlimit="10"/>
<path d="M318.618 339.948L337.643 326.5C340.551 324.425 344.207 325.172 345.702 328.077C347.281 331.066 346.118 335.134 343.21 337.126L324.101 350.657" fill="white"/>
<path d="M318.618 339.948L337.643 326.5C340.551 324.425 344.207 325.172 345.702 328.077C347.281 331.066 346.118 335.134 343.21 337.126L324.101 350.657" stroke="black" stroke-width="2.26" stroke-miterlimit="10"/>
<path d="M318.535 339.948L337.643 326.417C339.044 325.431 340.058 323.989 340.512 322.339C340.967 320.688 340.834 318.932 340.136 317.368C338.557 314.463 334.985 313.716 332.077 315.791L312.47 328.824L302.583 334.885" fill="white"/>
<path d="M318.535 339.948L337.643 326.417C339.044 325.431 340.058 323.989 340.512 322.339C340.967 320.688 340.834 318.932 340.136 317.368V317.368C338.557 314.463 334.985 313.716 332.077 315.791L312.47 328.824L302.583 334.885" stroke="black" stroke-width="2.26" stroke-miterlimit="10"/>
<path d="M290.092 405.901L344.76 369.609C353.054 364.103 355.318 352.934 349.818 344.663C344.318 336.391 333.137 334.149 324.843 339.655L270.175 375.948C261.882 381.453 259.617 392.622 265.117 400.893C270.617 409.165 281.799 411.407 290.092 405.901Z" fill="white" stroke="black" stroke-width="2.26" stroke-miterlimit="10"/>
<path d="M219.99 363.607L265.367 403.44C273.95 410.974 287.022 410.13 294.562 401.553L294.568 401.547C302.109 392.97 301.263 379.91 292.68 372.375L247.303 332.542C238.72 325.008 225.649 325.852 218.108 334.429L218.103 334.435C210.562 343.012 211.407 356.072 219.99 363.607Z" fill="white" stroke="black" stroke-width="2.6" stroke-miterlimit="10"/>
<path d="M314.713 328.741L314.879 319.195C314.879 316.372 312.885 314.297 310.476 314.629C307.983 314.878 305.989 317.451 305.989 320.274L305.823 334.303" fill="white"/>
<path d="M314.713 328.741L314.879 319.195C314.879 316.372 312.885 314.297 310.476 314.629C307.983 314.878 305.989 317.451 305.989 320.274L305.823 334.303" stroke="black" stroke-width="2.26" stroke-miterlimit="10" stroke-linecap="round"/>
<path d="M373.535 378.136C373.535 378.136 385.498 368.506 382.092 350.242" stroke="black" stroke-width="2.56" stroke-miterlimit="10" stroke-linecap="round"/>
<path d="M369.464 371.328C369.464 371.328 377.855 364.604 375.529 351.737" stroke="black" stroke-width="2.56" stroke-miterlimit="10" stroke-linecap="round"/>
<path d="M366.805 364.853C367.938 363.808 368.773 362.481 369.225 361.008C369.678 359.535 369.731 357.969 369.381 356.469" stroke="black" stroke-width="2.56" stroke-miterlimit="10" stroke-linecap="round"/>
<path d="M352.515 295.369C352.515 295.369 340.634 285.656 323.437 292.796" stroke="black" stroke-width="2.26" stroke-miterlimit="10" stroke-linecap="round"/>
<path d="M346.699 300.765C346.699 300.765 338.391 293.958 326.344 299.022" stroke="black" stroke-width="2.26" stroke-miterlimit="10" stroke-linecap="round"/>
<path d="M340.967 304.75C339.692 303.871 338.214 303.333 336.672 303.187C335.13 303.042 333.577 303.294 332.16 303.92" stroke="black" stroke-width="2.26" stroke-miterlimit="10" stroke-linecap="round"/>
<path d="M337.394 360.287L351.269 350.824C354.758 348.416 358.746 348.914 360.242 351.903C361.737 354.808 360.159 359.125 356.669 361.533L330.416 379.215" fill="white"/>
<path d="M337.394 360.287L351.269 350.824C354.758 348.416 358.746 348.914 360.242 351.903C361.737 354.808 360.159 359.125 356.669 361.533L330.416 379.215" stroke="black" stroke-width="2.26" stroke-miterlimit="10"/>
<path d="M330.166 351.903L352.681 336.462C356.087 334.137 360.075 334.636 361.571 337.541C363.066 340.53 361.488 344.846 358.081 347.254L335.566 362.695" fill="white"/>
<path d="M330.166 351.903L352.681 336.462C356.087 334.137 360.075 334.636 361.571 337.541C363.066 340.53 361.488 344.846 358.081 347.254L335.566 362.695" stroke="black" stroke-width="2.26" stroke-miterlimit="10"/>
<path d="M330.166 351.903L350.272 337.79C353.346 335.715 354.509 331.564 353.014 328.658C351.518 325.67 347.779 325.006 344.789 327.081L324.35 340.612L314.048 346.922" fill="white"/>
<path d="M330.166 351.903L350.272 337.79C353.346 335.715 354.509 331.564 353.014 328.658C351.518 325.67 347.779 325.006 344.789 327.081L324.35 340.612L314.048 346.922" stroke="black" stroke-width="2.26" stroke-miterlimit="10"/>
<path d="M323.27 342.854L322.107 329.323C322.107 328.696 321.968 328.078 321.699 327.512C321.431 326.946 321.041 326.446 320.556 326.049C320.071 325.652 319.504 325.367 318.896 325.216C318.288 325.064 317.654 325.049 317.039 325.172C315.725 325.548 314.579 326.363 313.793 327.481C313.007 328.599 312.628 329.952 312.719 331.315L314.048 348.582" fill="white"/>
<path d="M323.27 342.854L322.107 329.323C322.107 328.696 321.968 328.078 321.699 327.512C321.431 326.946 321.041 326.446 320.556 326.049C320.071 325.652 319.504 325.367 318.896 325.216C318.288 325.064 317.654 325.049 317.039 325.172V325.172C315.725 325.548 314.579 326.363 313.793 327.481C313.007 328.599 312.628 329.952 312.719 331.315L314.048 348.582" stroke="black" stroke-width="2.26" stroke-miterlimit="10" stroke-linecap="round"/>
<path d="M275.581 32.293C290.951 41.4247 301.835 54.126 307.485 67.4085C300.487 68.5589 293.775 71.0388 287.711 74.7139C280.317 63.8389 268.104 54.3751 252.235 49.5602C258.995 42.5389 266.887 36.702 275.581 32.293Z" fill="#06D087" stroke="black" stroke-width="2" stroke-miterlimit="10"/>
<path d="M263.867 44.9944C266.245 43.1185 268.743 41.3993 271.344 39.8474C272.777 40.576 274.353 40.9832 275.96 41.0406C277.567 41.0979 279.167 40.8041 280.649 40.1795C288.231 45.603 294.739 52.3871 299.841 60.1862C297.432 60.8503 296.767 63.2578 298.096 65.4162C295.85 66.1502 293.657 67.0378 291.533 68.0727C290.12 65.9973 287.13 65.2502 285.219 66.4954C279.43 59.8848 272.402 54.47 264.531 50.5564C266.691 48.8131 266.525 46.3226 263.867 44.9944Z" fill="#06D087" stroke="black" stroke-width="2" stroke-miterlimit="10"/>
<path d="M278.323 49.2283C281.812 47.1529 287.213 47.7341 289.705 50.3075C292.198 52.881 291.035 56.1186 287.711 57.6959C286.064 58.4563 284.246 58.7721 282.438 58.6119C280.631 58.4517 278.897 57.821 277.409 56.7827C274.751 54.7074 274.834 51.2207 278.323 49.2283Z" fill="white" stroke="black" stroke-width="2" stroke-miterlimit="10"/>
<path d="M290.869 61.2654C291.221 61.1067 291.616 61.0696 291.992 61.1597C292.368 61.2499 292.704 61.4622 292.946 61.7635C293.048 61.8912 293.117 62.0421 293.147 62.2028C293.176 62.3635 293.166 62.529 293.117 62.6849C293.068 62.8407 292.981 62.9821 292.864 63.0965C292.747 63.2108 292.604 63.2948 292.447 63.3408C292.091 63.4738 291.702 63.4975 291.332 63.4088C290.962 63.32 290.627 63.1229 290.37 62.8427C290.268 62.7149 290.199 62.5641 290.169 62.4034C290.139 62.2427 290.149 62.0771 290.199 61.9213C290.248 61.7654 290.335 61.6241 290.452 61.5097C290.568 61.3953 290.712 61.3114 290.869 61.2654Z" fill="white"/>
<path d="M271.344 44.4965C271.721 44.2448 272.158 44.097 272.61 44.0678C273.062 44.0387 273.514 44.1293 273.92 44.3304C274.668 44.8285 274.584 45.5757 273.754 45.9907C273.377 46.2424 272.94 46.3902 272.488 46.4194C272.036 46.4485 271.584 46.3579 271.178 46.1568C270.514 45.7417 270.514 44.9946 271.344 44.4965Z" fill="white"/>
<path d="M468.58 251.371C473.814 239.749 483.535 228.708 497.243 220.904C504.717 224.82 511.484 229.955 517.266 236.096C503.225 240.247 492.424 248.465 485.861 258.012C480.599 254.674 474.725 252.416 468.58 251.371Z" fill="#06D087" stroke="black" stroke-width="2" stroke-miterlimit="10"/>
<path d="M482.538 252.118C480.693 251.166 478.776 250.361 476.805 249.711C478.051 247.801 477.553 245.726 475.393 245.062C480.01 238.272 485.84 232.39 492.591 227.711C493.878 228.279 495.273 228.559 496.68 228.53C498.086 228.501 499.47 228.165 500.732 227.545C502.977 228.944 505.141 230.468 507.213 232.111C504.803 233.19 504.637 235.349 506.465 236.926C499.528 240.279 493.318 244.961 488.187 250.707C487.231 250.232 486.138 250.113 485.102 250.372C484.067 250.631 483.157 251.25 482.538 252.118Z" fill="#06D087" stroke="black" stroke-width="2" stroke-miterlimit="10"/>
<path d="M486.027 242.986C483.202 241.575 482.205 238.753 484.448 236.511C486.692 234.27 491.427 233.772 494.418 235.681C497.409 237.59 497.409 240.496 495.083 242.322C493.766 243.22 492.234 243.754 490.644 243.87C489.054 243.987 487.461 243.682 486.027 242.986Z" fill="white" stroke="black" stroke-width="2" stroke-miterlimit="10"/>
<path d="M498.157 233.024C497.492 232.609 497.492 232.028 498.074 231.613C498.441 231.444 498.843 231.363 499.247 231.377C499.651 231.392 500.046 231.501 500.4 231.696C500.982 232.194 501.065 232.858 500.4 233.191C500.047 233.371 499.651 233.452 499.255 233.422C498.859 233.393 498.479 233.255 498.157 233.024Z" fill="white"/>
<path d="M481.707 248.133C481.573 248.096 481.452 248.026 481.352 247.929C481.253 247.833 481.18 247.714 481.138 247.582C481.097 247.45 481.089 247.31 481.116 247.174C481.143 247.038 481.203 246.911 481.291 246.805C481.489 246.545 481.771 246.361 482.089 246.285C482.407 246.21 482.742 246.247 483.036 246.39C483.169 246.427 483.291 246.497 483.39 246.594C483.489 246.69 483.563 246.81 483.604 246.941C483.645 247.073 483.653 247.214 483.626 247.349C483.6 247.485 483.539 247.612 483.451 247.718C483.237 247.956 482.955 248.123 482.644 248.197C482.332 248.271 482.005 248.249 481.707 248.133Z" fill="white"/>
<path d="M124.04 526.484C108.837 512.454 93.6326 528.808 78.4287 510.379C81.3366 506.062 84.3275 499.587 87.2354 487.384C102.439 501.413 117.643 484.976 132.93 503.406C129.939 507.806 127.031 514.198 124.04 526.484Z" fill="#06D087" stroke="black" stroke-width="2" stroke-miterlimit="10"/>
<path d="M125.37 504.734C124.373 507.059 123.459 509.715 122.462 512.787C119.803 511.375 116.813 513.451 115.899 516.771C107.009 514.198 98.1192 518.515 89.1464 515.443C90.0603 513.285 88.6479 510.794 85.9893 509.051C86.9032 506.726 87.9001 504.07 88.814 500.998C91.4726 502.41 94.4636 500.334 95.3775 497.097C104.267 499.587 113.24 495.27 122.13 498.342C121.216 500.5 122.628 502.991 125.37 504.734Z" fill="#06D087" stroke="black" stroke-width="2" stroke-miterlimit="10"/>
<path d="M111.911 505.979C110.581 510.213 106.677 514.032 103.187 514.447C99.6978 514.862 98.0362 511.957 99.3655 507.806C100.695 503.655 104.6 499.753 108.089 499.421C111.578 499.089 113.323 501.829 111.911 505.979Z" fill="white" stroke="black" stroke-width="2" stroke-miterlimit="10"/>
<path d="M94.4637 507.723C94.3493 508.131 94.0959 508.488 93.7472 508.73C93.3985 508.972 92.9761 509.086 92.5528 509.051C91.805 508.885 91.4727 508.055 91.722 507.142C91.852 506.748 92.1119 506.411 92.4591 506.185C92.8063 505.958 93.2202 505.857 93.6328 505.896C94.3806 505.979 94.7129 506.81 94.4637 507.723Z" fill="white"/>
<path d="M119.887 506.727C119.806 507.132 119.569 507.49 119.227 507.723C118.886 507.956 118.466 508.045 118.059 507.972C117.867 507.932 117.688 507.847 117.536 507.725C117.383 507.603 117.262 507.446 117.181 507.269C117.1 507.091 117.062 506.897 117.07 506.701C117.079 506.506 117.133 506.316 117.228 506.146C117.327 505.728 117.577 505.361 117.929 505.116C118.282 504.871 118.712 504.765 119.139 504.817C119.325 504.878 119.496 504.98 119.638 505.114C119.781 505.249 119.892 505.413 119.963 505.596C120.035 505.778 120.065 505.974 120.052 506.17C120.038 506.365 119.982 506.555 119.887 506.727Z" fill="white"/>
<path d="M973.55 432.594C958.927 445.793 943.391 461.151 928.187 466.381C923.701 456.419 919.38 446.54 914.977 437.575C929.682 433.424 945.136 420.639 960.007 410.179C964.087 417.904 968.609 425.388 973.55 432.594Z" fill="#06D087" stroke="black" stroke-width="1.85" stroke-miterlimit="10"/>
<path d="M960.174 421.802C961.586 424.458 963.082 426.949 964.494 429.356C961.919 431.514 960.922 435.333 962.334 437.658C953.61 445.295 944.638 452.849 935.665 457.747C935.014 456.406 933.892 455.352 932.513 454.785C931.134 454.218 929.594 454.18 928.187 454.676L923.867 445.461C926.526 444.465 927.606 440.978 926.194 438.073C935 433.839 943.973 427.281 952.78 420.722C954.192 423.379 957.515 423.877 960.174 421.802Z" fill="#06D087" stroke="black" stroke-width="1.85" stroke-miterlimit="10"/>
<path d="M950.536 435.001C951.53 436.969 951.825 439.216 951.372 441.373C950.919 443.531 949.745 445.47 948.043 446.872C944.554 449.529 940.068 448.035 937.991 443.801C935.914 439.567 936.994 434.586 940.483 432.179C943.973 429.771 948.376 431.099 950.536 435.001Z" fill="white" stroke="black" stroke-width="1.5" stroke-miterlimit="10"/>
<path d="M933.089 446.706C933.294 447.111 933.348 447.576 933.242 448.017C933.135 448.458 932.875 448.847 932.507 449.114C932.3 449.193 932.08 449.23 931.858 449.222C931.636 449.215 931.419 449.163 931.217 449.07C931.016 448.978 930.835 448.846 930.686 448.682C930.536 448.518 930.421 448.326 930.347 448.117C930.129 447.729 930.067 447.272 930.175 446.84C930.283 446.407 930.553 446.033 930.929 445.793C931.337 445.629 931.793 445.633 932.198 445.804C932.603 445.975 932.923 446.299 933.089 446.706Z" fill="white"/>
<path d="M958.429 428.775C958.62 429.189 958.674 429.654 958.585 430.101C958.495 430.549 958.266 430.956 957.93 431.265C957.775 431.405 957.59 431.508 957.39 431.568C957.189 431.628 956.978 431.642 956.771 431.611C956.565 431.579 956.368 431.502 956.195 431.384C956.021 431.267 955.876 431.113 955.77 430.933C955.544 430.513 955.47 430.027 955.561 429.558C955.652 429.089 955.902 428.666 956.269 428.36C956.43 428.224 956.619 428.125 956.823 428.072C957.027 428.018 957.241 428.011 957.448 428.051C957.655 428.091 957.851 428.177 958.021 428.302C958.19 428.427 958.33 428.589 958.429 428.775Z" fill="white"/>
<path d="M117.975 211.689C100.445 211.939 82.915 224.723 65.3848 224.391L66.3817 198.407C83.912 198.158 101.442 185.374 118.972 185.706L117.975 211.689Z" fill="#06D087" stroke="black" stroke-width="1.85" stroke-miterlimit="10"/>
<path d="M113.406 194.837C113.24 197.66 113.157 200.482 113.074 203.305C109.917 203.72 107.341 206.542 107.258 209.365C96.9562 211.855 86.6541 216.836 76.435 219.244C76.5181 216.504 74.1088 214.844 70.9517 215.259C71.1178 212.437 71.2009 209.614 71.284 206.875C72.7903 206.636 74.1789 205.917 75.2421 204.825C76.3054 203.732 76.9862 202.326 77.1828 200.814C87.4018 198.241 97.7039 193.26 107.923 190.853C107.84 193.675 110.249 195.252 113.406 194.837Z" fill="#06D087" stroke="black" stroke-width="1.85" stroke-miterlimit="10"/>
<path d="M99.4485 202.475C99.2823 206.543 95.876 210.942 91.888 212.354C87.9001 213.765 84.8261 211.69 84.9923 207.622C85.1584 203.554 88.4817 199.154 92.4696 197.743C96.4575 196.332 99.5315 198.407 99.4485 202.475Z" fill="white" stroke="black" stroke-width="1.5" stroke-miterlimit="10"/>
<path d="M79.2595 209.365C79.2183 209.814 79.0471 210.242 78.7668 210.596C78.4865 210.95 78.1092 211.214 77.6809 211.357C77.4959 211.442 77.2907 211.472 77.0891 211.445C76.8876 211.418 76.6977 211.335 76.5415 211.205C76.3852 211.074 76.2689 210.903 76.2059 210.71C76.1429 210.516 76.1358 210.309 76.1855 210.112C76.2317 209.674 76.4061 209.26 76.6869 208.92C76.9676 208.58 77.3423 208.331 77.764 208.203C77.9418 208.126 78.137 208.098 78.3291 208.123C78.5213 208.147 78.7034 208.222 78.8563 208.341C79.0092 208.46 79.1273 208.618 79.1982 208.798C79.2692 208.978 79.2903 209.174 79.2595 209.365Z" fill="white"/>
<path d="M108.587 199.901C108.541 200.339 108.367 200.754 108.086 201.094C107.805 201.433 107.43 201.683 107.009 201.811C106.831 201.864 106.643 201.874 106.461 201.84C106.279 201.805 106.108 201.728 105.961 201.615C105.815 201.501 105.698 201.354 105.62 201.186C105.542 201.018 105.505 200.833 105.513 200.648C105.544 200.196 105.711 199.763 105.993 199.407C106.274 199.051 106.658 198.789 107.092 198.656C107.277 198.572 107.482 198.541 107.684 198.568C107.885 198.595 108.075 198.679 108.231 198.809C108.387 198.939 108.504 199.111 108.567 199.304C108.63 199.497 108.637 199.704 108.587 199.901Z" fill="white"/>
<path d="M763.353 97.8752C748.315 89.9058 733.278 105.596 718.157 91.234C719.985 85.0909 721.812 78.4496 723.557 71.5593C738.595 79.5288 753.633 63.8389 768.67 78.2006C766.926 84.3437 765.098 90.985 763.353 97.8752Z" fill="#06D087" stroke="black" stroke-width="2" stroke-miterlimit="10"/>
<path d="M762.356 81.7702L760.612 88.7435C760.018 88.5418 759.388 88.4667 758.763 88.5233C758.138 88.5798 757.532 88.7667 756.984 89.0718C756.436 89.3769 755.958 89.7934 755.581 90.2946C755.204 90.7957 754.937 91.3702 754.796 91.9811C745.989 91.483 737.183 95.5508 728.376 93.3924C728.874 91.0679 727.213 88.8265 724.554 87.6643C725.136 85.3399 725.717 83.0985 726.216 80.691C726.815 80.9066 727.453 80.9924 728.087 80.9427C728.722 80.893 729.339 80.7089 729.897 80.4027C730.455 80.0965 730.941 79.6751 731.323 79.1666C731.706 78.6581 731.976 78.0741 732.115 77.4534C740.921 77.9515 749.728 73.8837 758.535 75.9591C757.953 78.3666 759.698 80.608 762.356 81.7702Z" fill="#06D087" stroke="black" stroke-width="2" stroke-miterlimit="10"/>
<path d="M749.645 83.8457C748.814 87.4984 745.408 90.902 741.918 91.4831C738.429 92.0642 736.435 89.2417 737.266 85.589C738.097 81.9363 741.503 78.5327 744.909 77.9516C748.316 77.3705 750.476 80.193 749.645 83.8457Z" fill="white" stroke="black" stroke-width="2" stroke-miterlimit="10"/>
<path d="M732.364 85.7551C732.284 86.1284 732.072 86.4603 731.767 86.6893C731.461 86.9182 731.083 87.0288 730.702 87.0004C730.528 86.9721 730.361 86.9072 730.214 86.8099C730.067 86.7127 729.942 86.5853 729.848 86.4361C729.754 86.287 729.692 86.1196 729.667 85.9449C729.643 85.7703 729.656 85.5924 729.705 85.4231C729.801 85.0652 730.02 84.7525 730.324 84.54C730.628 84.3275 730.997 84.2287 731.367 84.2608C732.114 84.2608 732.53 84.925 732.364 85.7551Z" fill="white"/>
<path d="M757.537 84.0947C757.441 84.4526 757.222 84.7652 756.918 84.9777C756.614 85.1902 756.245 85.289 755.876 85.2569C755.705 85.2397 755.54 85.185 755.392 85.0965C755.245 85.008 755.119 84.888 755.024 84.7451C754.929 84.6022 754.866 84.44 754.841 84.2701C754.816 84.1002 754.829 83.9269 754.879 83.7626C754.94 83.3804 755.148 83.037 755.458 82.8047C755.768 82.5724 756.156 82.4694 756.54 82.5174C756.715 82.5456 756.881 82.6105 757.028 82.7078C757.175 82.805 757.3 82.9325 757.395 83.0816C757.489 83.2307 757.55 83.3981 757.575 83.5728C757.6 83.7474 757.587 83.9253 757.537 84.0947Z" fill="white"/>
<path d="M924.365 229.621C910.657 232.941 900.023 240.413 893.376 249.212C888.516 245.905 883.076 243.539 877.341 242.239C883.157 231.281 893.293 221.153 907.168 214.512C913.665 218.606 919.47 223.706 924.365 229.621Z" fill="#06D087" stroke="black" stroke-width="1.67" stroke-miterlimit="10"/>
<path d="M909.66 220.987C911.604 222.397 913.463 223.922 915.226 225.553C912.9 226.466 912.484 228.542 914.063 230.036C907.266 232.965 901.09 237.163 895.868 242.405C894.373 241.326 891.797 241.824 890.551 243.485C888.855 242.555 887.108 241.724 885.317 240.994C886.563 239.251 886.231 237.175 884.32 236.511C889.156 230.203 895.13 224.853 901.933 220.738C903.121 221.353 904.431 221.694 905.768 221.737C907.105 221.78 908.435 221.524 909.66 220.987Z" fill="#06D087" stroke="black" stroke-width="1.67" stroke-miterlimit="10"/>
<path d="M902.847 228.376C905.506 230.202 905.34 233.024 902.931 234.685C901.653 235.471 900.194 235.914 898.695 235.972C897.196 236.03 895.708 235.701 894.373 235.017C891.881 233.523 891.133 230.783 893.459 228.708C895.785 226.632 900.272 226.466 902.847 228.376Z" fill="white" stroke="black" stroke-width="1.67" stroke-miterlimit="10"/>
<path d="M891.548 237.84C891.668 237.895 891.773 237.979 891.854 238.083C891.935 238.187 891.991 238.31 892.015 238.439C892.039 238.569 892.032 238.703 891.994 238.83C891.957 238.957 891.889 239.072 891.797 239.168C891.602 239.408 891.33 239.572 891.026 239.633C890.723 239.693 890.408 239.646 890.136 239.5C890.009 239.453 889.896 239.376 889.806 239.275C889.716 239.175 889.652 239.054 889.62 238.923C889.587 238.792 889.586 238.656 889.619 238.525C889.651 238.394 889.714 238.273 889.803 238.172C890.027 237.948 890.313 237.796 890.625 237.737C890.936 237.678 891.258 237.714 891.548 237.84Z" fill="white"/>
<path d="M909.162 224.723C909.306 224.782 909.428 224.885 909.511 225.016C909.594 225.148 909.634 225.303 909.625 225.458C909.616 225.614 909.558 225.762 909.46 225.884C909.362 226.005 909.229 226.092 909.079 226.134C908.727 226.279 908.344 226.332 907.966 226.289C907.589 226.245 907.228 226.106 906.919 225.885C906.8 225.815 906.703 225.714 906.639 225.592C906.574 225.47 906.545 225.333 906.553 225.196C906.562 225.058 906.608 224.926 906.687 224.813C906.766 224.7 906.875 224.612 907.002 224.557C907.346 224.4 907.725 224.333 908.103 224.362C908.481 224.391 908.845 224.515 909.162 224.723Z" fill="white"/>
<path d="M965.49 334.158C974.633 325.669 975.385 311.627 967.17 302.794C958.956 293.96 944.885 293.682 935.742 302.171C926.6 310.66 925.847 324.702 934.062 333.535C942.277 342.368 956.348 342.647 965.49 334.158Z" fill="white" stroke="black" stroke-width="1.2" stroke-miterlimit="10"/>
<path d="M962.04 330.448C969.099 323.894 969.706 313.081 963.397 306.297C957.087 299.513 946.251 299.326 939.192 305.88C932.133 312.434 931.526 323.247 937.835 330.031C944.145 336.816 954.982 337.002 962.04 330.448Z" fill="white"/>
<path d="M962.04 330.531C969.099 323.977 969.706 313.164 963.397 306.38C957.087 299.596 946.251 299.409 939.192 305.963C932.133 312.517 931.526 323.33 937.835 330.114C944.145 336.899 954.982 337.085 962.04 330.531Z" stroke="black" stroke-width="1.2" stroke-miterlimit="10" stroke-linecap="round" stroke-dasharray="3.59 5.03"/>
<path d="M968.149 303.754C970.63 305.928 972.568 308.652 973.808 311.708C975.049 314.763 975.558 318.066 975.294 321.353C974.827 327.29 972.089 332.82 967.649 336.793C963.209 340.766 957.407 342.877 951.45 342.688C948.285 342.619 945.177 341.836 942.358 340.399C939.538 338.961 937.08 336.906 935.166 334.386C938.922 337.681 943.712 339.56 948.708 339.699C960.921 340.197 971.556 330.568 972.47 318.364C972.902 313.126 971.362 307.916 968.149 303.754Z" fill="white" stroke="black" stroke-width="1.2" stroke-miterlimit="10"/>
<path d="M948.625 342.439L945.8 339.45" stroke="black" stroke-width="1.2" stroke-miterlimit="10"/>
<path d="M956.767 342.273L954.025 339.284" stroke="black" stroke-width="1.2" stroke-miterlimit="10"/>
<path d="M962.915 340.115L960.173 337.043" stroke="black" stroke-width="1.2" stroke-miterlimit="10"/>
<path d="M968.565 335.964L965.823 332.892" stroke="black" stroke-width="1.2" stroke-miterlimit="10"/>
<path d="M972.636 330.485L969.811 327.496" stroke="black" stroke-width="1.2" stroke-miterlimit="10"/>
<path d="M974.879 324.508L972.054 321.519" stroke="black" stroke-width="1.2" stroke-miterlimit="10"/>
<path d="M975.211 316.87L972.387 313.882" stroke="black" stroke-width="1.2" stroke-miterlimit="10"/>
<path d="M478.301 545.08C469.66 540.348 461.02 546.076 452.462 549.812C443.905 553.547 435.181 554.959 426.541 555.374C424.962 550.061 423.467 540.265 421.971 530.054C430.529 534.786 439.169 529.058 447.81 525.322C456.45 521.586 465.091 520.175 473.731 519.76C475.226 525.073 476.805 534.869 478.301 545.08Z" fill="#06D087" stroke="black" stroke-width="1.85" stroke-miterlimit="10"/>
<path d="M470.075 525.903C470.574 528.061 471.072 530.552 471.571 533.374C468.497 533.042 466.42 535.865 466.918 538.937C456.782 541.51 446.646 550.642 436.593 551.97C436.095 550.227 433.187 549.23 430.113 549.23C429.698 547.072 429.199 544.582 428.701 541.759C431.692 542.091 433.852 539.269 433.353 536.197C443.489 533.623 453.542 524.492 463.678 523.164C464.176 524.907 467.084 525.903 470.075 525.903Z" fill="#06D087" stroke="black" stroke-width="1.85" stroke-miterlimit="10"/>
<path d="M457.281 533.208C457.945 536.612 455.37 541.842 451.382 544.166C447.394 546.491 443.738 545.412 442.991 542.008C442.243 538.604 444.902 533.291 448.89 530.967C452.877 528.642 456.533 529.722 457.281 533.208Z" fill="white" stroke="black" stroke-width="1.5" stroke-miterlimit="10"/>
<path d="M437.424 544.499C437.477 544.903 437.38 545.312 437.15 545.649C436.92 545.986 436.574 546.226 436.178 546.325C435.998 546.389 435.807 546.417 435.617 546.406C435.426 546.394 435.24 546.344 435.069 546.259C434.898 546.174 434.746 546.055 434.623 545.909C434.499 545.763 434.407 545.594 434.35 545.412C434.3 545.018 434.401 544.619 434.632 544.296C434.863 543.973 435.207 543.749 435.597 543.668C435.77 543.589 435.958 543.548 436.148 543.548C436.339 543.548 436.527 543.588 436.7 543.667C436.873 543.746 437.028 543.861 437.153 544.004C437.278 544.148 437.37 544.316 437.424 544.499Z" fill="white"/>
<path d="M466.337 529.639C466.387 530.033 466.286 530.431 466.055 530.754C465.824 531.077 465.48 531.302 465.09 531.382C464.912 531.46 464.718 531.498 464.523 531.493C464.328 531.488 464.137 531.441 463.962 531.354C463.788 531.266 463.635 531.142 463.514 530.989C463.393 530.836 463.307 530.659 463.263 530.469C463.213 530.075 463.313 529.677 463.544 529.353C463.775 529.03 464.12 528.806 464.509 528.726C464.689 528.661 464.88 528.634 465.07 528.645C465.261 528.656 465.447 528.706 465.618 528.791C465.789 528.877 465.941 528.996 466.064 529.141C466.188 529.287 466.28 529.456 466.337 529.639Z" fill="white"/>
<path d="M507.13 0.8302C513.859 22.7463 496.163 29.2215 486.526 25.7348C478.882 22.9123 478.3 13.7806 483.535 12.4524C488.769 11.1241 500.234 22.1652 490.929 34.8665C481.624 47.5679 466.171 39.8475 466.752 32.7081C467.5 23.2444 488.27 29.8856 480.461 47.4019C473.814 62.2617 456.118 55.1223 456.118 55.1223" stroke="black" stroke-width="2" stroke-miterlimit="10" stroke-linecap="round"/>
<path d="M78.8443 406.942C55.9969 408.602 53.6706 389.924 59.2371 381.373C63.7235 374.566 72.6963 376.06 72.8625 381.373C73.0286 386.686 59.6525 395.486 49.3504 383.532C39.0483 371.577 50.0981 358.295 56.9108 360.453C65.8836 363.359 54.8338 382.037 39.4637 370.498C26.5029 360.702 37.4697 345.095 37.4697 345.095" stroke="#06D087" stroke-width="2" stroke-miterlimit="10" stroke-linecap="round"/>
<path d="M437.757 678.07C452.899 678.07 465.174 665.805 465.174 650.675C465.174 635.545 452.899 623.28 437.757 623.28C422.615 623.28 410.34 635.545 410.34 650.675C410.34 665.805 422.615 678.07 437.757 678.07Z" fill="white" stroke="black" stroke-width="1.79" stroke-miterlimit="10" stroke-linecap="round"/>
<path d="M458.21 679.452C472.861 666.316 474.454 644.215 461.768 630.087C449.082 615.959 426.92 615.155 412.268 628.29C397.617 641.426 396.024 663.527 408.71 677.655C421.397 691.783 443.558 692.587 458.21 679.452Z" fill="white" stroke="black" stroke-width="1.89" stroke-miterlimit="10"/>
<path d="M452.883 673.52C464.154 663.416 465.391 646.427 455.646 635.575C445.901 624.724 428.866 624.117 417.595 634.222C406.325 644.326 405.088 661.314 414.833 672.166C424.577 683.018 441.613 683.624 452.883 673.52Z" fill="white"/>
<path d="M452.883 673.52C464.154 663.416 465.391 646.427 455.646 635.575C445.901 624.724 428.866 624.117 417.595 634.222C406.325 644.326 405.088 661.314 414.833 672.166C424.577 683.018 441.613 683.624 452.883 673.52Z" stroke="black" stroke-width="1.89" stroke-miterlimit="10" stroke-linecap="round" stroke-dasharray="5.66 7.92"/>
<path d="M463.761 632.661C467.595 636.155 470.554 640.498 472.401 645.343C474.248 650.188 474.931 655.398 474.396 660.554C472.734 679.814 455.619 694.591 436.344 693.594C431.36 693.356 426.492 692.01 422.095 689.655C417.697 687.3 413.88 683.995 410.921 679.98C416.716 685.279 424.179 688.391 432.024 688.78C451.299 689.776 468.414 675.082 470.159 655.822C470.946 647.579 468.669 639.334 463.761 632.661Z" fill="white" stroke="black" stroke-width="1.89" stroke-miterlimit="10"/>
<path d="M431.775 693.013L427.538 688.198" stroke="black" stroke-width="1.89" stroke-miterlimit="10"/>
<path d="M444.735 693.013L440.415 688.198" stroke="black" stroke-width="1.89" stroke-miterlimit="10"/>
<path d="M454.456 689.776L450.136 684.961" stroke="black" stroke-width="1.89" stroke-miterlimit="10"/>
<path d="M463.429 683.384L459.108 678.569" stroke="black" stroke-width="1.89" stroke-miterlimit="10"/>
<path d="M469.992 674.916L465.672 670.184" stroke="black" stroke-width="1.89" stroke-miterlimit="10"/>
<path d="M473.648 665.535L469.328 660.72" stroke="black" stroke-width="1.89" stroke-miterlimit="10"/>
<path d="M474.395 653.581L470.075 648.766" stroke="black" stroke-width="1.89" stroke-miterlimit="10"/>
<path d="M0.913714 327.247C0.737202 324.897 0.764999 322.536 0.996794 320.191" stroke="black" stroke-width="2" stroke-miterlimit="10" stroke-linecap="round"/>
<path d="M3.24023 306.41C19.0257 233.938 109.834 36.2777 267.606 175.744C495.831 377.554 419.645 87.7473 681.518 46.4886C777.477 31.3798 892.795 87.7473 848.346 263.408C823.671 360.785 934.834 370.498 975.045 370.913" stroke="black" stroke-width="2" stroke-miterlimit="10" stroke-linecap="round" stroke-dasharray="16.85 16.85"/>
<path d="M982.107 370.83L989.169 370.581" stroke="black" stroke-width="2" stroke-miterlimit="10" stroke-linecap="round"/>
</g>
<defs>
<clipPath id="clip0_301_2420">
<rect width="990" height="740" fill="white"/>
</clipPath>
</defs>
</svg>
