<svg width="972" height="825" viewBox="0 0 972 825" fill="none" xmlns="http://www.w3.org/2000/svg">
<path d="M635.084 74.86L665.404 50.6255" stroke="black" stroke-width="2" stroke-miterlimit="10"/>
<path d="M630.356 102.072L660.779 77.9407" stroke="black" stroke-width="2" stroke-miterlimit="10"/>
<path d="M625.731 129.388L656.051 105.256" stroke="black" stroke-width="2" stroke-miterlimit="10"/>
<path d="M621.003 156.703L651.323 132.468" stroke="black" stroke-width="2" stroke-miterlimit="10"/>
<path d="M616.275 184.018L646.698 159.783" stroke="black" stroke-width="2" stroke-miterlimit="10"/>
<path d="M611.65 211.23L641.97 187.099" stroke="black" stroke-width="2" stroke-miterlimit="10"/>
<path d="M606.922 238.546L637.242 214.311" stroke="black" stroke-width="2" stroke-miterlimit="10"/>
<path d="M602.194 265.861L632.514 241.626" stroke="black" stroke-width="2" stroke-miterlimit="10"/>
<path d="M633.851 271.303L664.376 247.171" stroke="black" stroke-width="2" stroke-miterlimit="10"/>
<path d="M665.507 276.746L696.136 252.614" stroke="black" stroke-width="2" stroke-miterlimit="10"/>
<path d="M697.164 282.188L727.998 258.159" stroke="black" stroke-width="2" stroke-miterlimit="10"/>
<path d="M728.82 287.631L759.757 263.704" stroke="black" stroke-width="2" stroke-miterlimit="10"/>
<path d="M760.477 293.073L791.619 269.147" stroke="black" stroke-width="2" stroke-miterlimit="10"/>
<path d="M792.133 298.516L823.379 274.692" stroke="black" stroke-width="2" stroke-miterlimit="10"/>
<path d="M602.091 265.142L792.647 298.105C774.558 402.539 673.73 473.6 569.201 455.526C464.673 437.453 393.446 336.716 411.535 232.282C429.625 127.847 530.556 56.6841 635.084 74.7573L602.091 265.142Z" fill="#06D087" stroke="black" stroke-width="2" stroke-miterlimit="10"/>
<path d="M823.276 274.281L669.618 233.616L693.566 95.6031L699.733 59.8674" fill="white"/>
<path d="M632.72 241.421L665.61 51.0361C690.636 55.3462 714.568 64.5403 736.037 78.0933C757.507 91.6463 776.093 109.293 790.734 130.024C805.376 150.756 815.786 174.166 821.369 198.918C826.953 223.67 827.601 249.279 823.276 274.281L632.72 241.421Z" fill="white" stroke="black" stroke-width="2" stroke-miterlimit="10"/>
<path d="M786.275 799.841C856.606 799.841 913.62 742.878 913.62 672.61C913.62 602.342 856.606 545.379 786.275 545.379C715.944 545.379 658.929 602.342 658.929 672.61C658.929 742.878 715.944 799.841 786.275 799.841Z" fill="#06D087"/>
<path d="M93.5307 413.527C145.186 413.527 187.061 371.689 187.061 320.08C187.061 268.471 145.186 226.634 93.5307 226.634C41.8751 226.634 0 268.471 0 320.08C0 371.689 41.8751 413.527 93.5307 413.527Z" fill="white"/>
<path d="M772.502 48.2636C785.558 48.2636 796.142 37.6893 796.142 24.6452C796.142 11.6012 785.558 1.02686 772.502 1.02686C759.446 1.02686 748.862 11.6012 748.862 24.6452C748.862 37.6893 759.446 48.2636 772.502 48.2636Z" fill="white" stroke="black" stroke-width="2" stroke-miterlimit="10"/>
<path d="M617.406 785.568C626.999 785.568 634.776 777.798 634.776 768.213C634.776 758.629 626.999 750.859 617.406 750.859C607.812 750.859 600.036 758.629 600.036 768.213C600.036 777.798 607.812 785.568 617.406 785.568Z" fill="white" stroke="black" stroke-width="2" stroke-miterlimit="10"/>
<path d="M437.642 271.714C447.064 271.714 454.703 264.082 454.703 254.668C454.703 245.253 447.064 237.621 437.642 237.621C428.219 237.621 420.58 245.253 420.58 254.668C420.58 264.082 428.219 271.714 437.642 271.714Z" fill="white" stroke="black" stroke-width="2" stroke-miterlimit="10"/>
<path d="M921.333 598.471C923.539 572.761 905.246 550.198 880.474 548.077C855.702 545.955 833.832 565.077 831.626 590.787C829.42 616.498 847.713 639.06 872.485 641.182C897.257 643.303 919.127 624.181 921.333 598.471Z" fill="white" stroke="black" stroke-width="2" stroke-miterlimit="10"/>
<path d="M910.99 597.585C912.687 577.808 898.612 560.452 879.552 558.819C860.492 557.187 843.666 571.896 841.969 591.673C840.272 611.45 854.347 628.806 873.406 630.439C892.466 632.071 909.293 617.362 910.99 597.585Z" fill="white"/>
<path d="M910.99 597.585C912.687 577.808 898.612 560.452 879.552 558.819C860.492 557.187 843.666 571.896 841.969 591.673C840.272 611.45 854.347 628.806 873.406 630.439C892.466 632.071 909.293 617.362 910.99 597.585Z" stroke="black" stroke-width="2" stroke-miterlimit="10" stroke-linecap="round" stroke-dasharray="5.99 8.39"/>
<path d="M884.636 548.665C891.433 548.577 898.158 550.072 904.277 553.03C910.396 555.989 915.742 560.331 919.89 565.711C927.42 575.434 930.925 587.674 929.682 599.904C928.439 612.134 922.542 623.421 913.209 631.432C908.219 635.672 902.345 638.747 896.016 640.434C889.687 642.122 883.06 642.379 876.619 641.187C886.912 641.092 896.844 637.384 904.678 630.713C924.104 614.386 927.085 585.017 911.462 564.993C904.829 556.444 895.281 550.633 884.636 548.665Z" fill="white" stroke="black" stroke-width="2" stroke-miterlimit="10"/>
<path d="M908.276 635.026L899.848 634.307" stroke="black" stroke-width="2" stroke-miterlimit="10"/>
<path d="M920.609 623.422L912.181 622.704" stroke="black" stroke-width="2" stroke-miterlimit="10"/>
<path d="M926.982 611.613L918.554 610.894" stroke="black" stroke-width="2" stroke-miterlimit="10"/>
<path d="M929.86 597.442L921.432 596.723" stroke="black" stroke-width="2" stroke-miterlimit="10"/>
<path d="M928.524 583.477L920.096 582.86" stroke="black" stroke-width="2" stroke-miterlimit="10"/>
<path d="M923.59 571.256L915.162 570.538" stroke="black" stroke-width="2" stroke-miterlimit="10"/>
<path d="M913.62 559.139L905.192 558.42" stroke="black" stroke-width="2" stroke-miterlimit="10"/>
<path d="M155.302 816.888C189.815 816.888 217.793 788.935 217.793 754.453C217.793 719.971 189.815 692.018 155.302 692.018C120.789 692.018 92.8112 719.971 92.8112 754.453C92.8112 788.935 120.789 816.888 155.302 816.888Z" fill="#06D087" stroke="black" stroke-width="2" stroke-miterlimit="10"/>
<path d="M205.973 790.907C205.356 792.14 204.637 793.269 203.918 794.501C195.181 808.555 181.215 818.565 165.091 822.329C148.967 826.094 132.007 823.306 117.941 814.577C103.875 805.848 93.8564 791.895 90.0881 775.785C86.3198 759.676 89.1109 742.731 97.8475 728.678C98.6698 727.446 99.3892 726.316 100.211 725.289C92.7853 739.247 90.9446 755.503 95.0618 770.766C99.1791 786.029 108.947 799.159 122.388 807.498C135.829 815.837 151.939 818.763 167.457 815.683C182.976 812.602 196.743 803.746 205.973 790.907Z" fill="white" stroke="black" stroke-width="2" stroke-miterlimit="10"/>
<path d="M89.5222 750.037L93.8391 743.054" stroke="black" stroke-width="2" stroke-miterlimit="10"/>
<path d="M88.4944 762.257L92.8113 755.274" stroke="black" stroke-width="2" stroke-miterlimit="10"/>
<path d="M90.1389 775.607L94.5585 768.418" stroke="black" stroke-width="2" stroke-miterlimit="10"/>
<path d="M94.9697 789.162L99.2865 782.179" stroke="black" stroke-width="2" stroke-miterlimit="10"/>
<path d="M102.781 801.382L107.201 794.296" stroke="black" stroke-width="2" stroke-miterlimit="10"/>
<path d="M114.498 812.369L118.918 805.284" stroke="black" stroke-width="2" stroke-miterlimit="10"/>
<path d="M130.326 820.482L134.643 813.499" stroke="black" stroke-width="2" stroke-miterlimit="10"/>
<path d="M146.771 823.768L150.985 816.99" stroke="black" stroke-width="2" stroke-miterlimit="10"/>
<path d="M166.505 821.816L170.719 815.039" stroke="black" stroke-width="2" stroke-miterlimit="10" stroke-linecap="round"/>
<path d="M269.134 166.344L124.005 201.959L148.394 301.165L293.524 265.549L269.134 166.344Z" fill="white" stroke="black" stroke-width="2" stroke-miterlimit="10"/>
<path d="M123.494 182.94L260.739 149.26C261.798 149 262.916 149.172 263.849 149.736C264.782 150.3 265.452 151.212 265.712 152.27L269.144 166.231L124.015 201.846L120.582 187.885C120.326 186.844 120.487 185.744 121.031 184.821C121.575 183.897 122.459 183.222 123.494 182.94Z" fill="#06D087" stroke="black" stroke-width="2" stroke-miterlimit="10"/>
<path d="M159.847 203.714L136.69 209.397L142.368 232.493L165.525 226.81L159.847 203.714Z" stroke="black" stroke-width="2" stroke-miterlimit="10"/>
<path d="M261.447 178.796L238.291 184.479L243.969 207.575L267.126 201.892L261.447 178.796Z" stroke="black" stroke-width="2" stroke-miterlimit="10"/>
<path d="M210.608 191.254L187.451 196.936L193.129 220.032L216.286 214.35L210.608 191.254Z" stroke="black" stroke-width="2" stroke-miterlimit="10"/>
<path d="M166.774 231.838L143.617 237.52L149.295 260.616L172.452 254.934L166.774 231.838Z" stroke="black" stroke-width="2" stroke-miterlimit="10"/>
<path d="M268.25 206.844L245.093 212.527L250.771 235.623L273.928 229.94L268.25 206.844Z" stroke="black" stroke-width="2" stroke-miterlimit="10"/>
<path d="M217.513 219.404L194.356 225.087L200.035 248.183L223.191 242.501L217.513 219.404Z" stroke="black" stroke-width="2" stroke-miterlimit="10"/>
<path d="M173.679 259.886L150.522 265.568L156.2 288.665L179.357 282.982L173.679 259.886Z" stroke="black" stroke-width="2" stroke-miterlimit="10"/>
<path d="M275.28 234.968L252.123 240.65L257.801 263.747L280.958 258.064L275.28 234.968Z" fill="#06D087" stroke="black" stroke-width="2" stroke-miterlimit="10"/>
<path d="M224.416 247.428L201.259 253.111L206.937 276.207L230.094 270.524L224.416 247.428Z" stroke="black" stroke-width="2" stroke-miterlimit="10"/>
<path d="M238.452 184.223L267.231 201.68" stroke="black" stroke-width="2" stroke-miterlimit="10"/>
<path d="M261.475 178.575L244.105 207.328" stroke="black" stroke-width="2" stroke-miterlimit="10"/>
<path d="M143.791 237.313L172.569 254.668" stroke="black" stroke-width="2" stroke-miterlimit="10"/>
<path d="M166.916 231.563L149.546 260.418" stroke="black" stroke-width="2" stroke-miterlimit="10"/>
<path d="M254.177 248.301L269.286 259.289C269.422 259.38 269.58 259.433 269.743 259.444C269.906 259.454 270.069 259.421 270.215 259.348C270.361 259.275 270.486 259.164 270.575 259.028C270.665 258.891 270.717 258.733 270.725 258.57L275.35 234.644" stroke="black" stroke-width="2" stroke-miterlimit="10"/>
<path d="M233.416 155.881L235.471 164.815" stroke="black" stroke-width="2" stroke-miterlimit="10" stroke-linecap="round"/>
<path d="M225.399 157.833L227.043 164.815" stroke="black" stroke-width="2" stroke-miterlimit="10" stroke-linecap="round"/>
<path d="M785.966 241.421L680.205 186.483L789.975 202.297L785.966 241.421Z" fill="white" stroke="black" stroke-width="2" stroke-miterlimit="10"/>
<path d="M815.464 191.925L674.141 185.969L789.975 202.296L815.464 192.028C815.567 192.028 815.567 191.925 815.464 191.925Z" fill="white" stroke="black" stroke-width="2" stroke-miterlimit="10"/>
<path d="M746.087 241.934L774.455 212.565C774.455 212.538 774.444 212.512 774.425 212.493C774.405 212.473 774.379 212.463 774.352 212.463L674.141 185.969C674.038 185.969 674.038 186.072 674.141 186.072L745.676 241.934H746.087Z" fill="white" stroke="black" stroke-width="2" stroke-miterlimit="10"/>
<path d="M789.975 202.297L786.377 242.14H786.172L774.455 212.36" fill="white"/>
<path d="M789.975 202.297L786.377 242.14H786.172L774.455 212.36" stroke="black" stroke-width="2" stroke-miterlimit="10"/>
<path d="M759.654 227.866L786.172 242.242" stroke="black" stroke-width="2" stroke-miterlimit="10"/>
<path d="M799.739 249.02C799.739 249.02 802.925 249.841 808.064 251.792" stroke="black" stroke-width="2" stroke-miterlimit="10" stroke-linecap="round"/>
<path d="M822.659 258.467C839.69 267.533 854.748 279.889 866.958 294.819C888.028 320.594 930.579 324.701 954.219 324.804" stroke="black" stroke-width="2" stroke-miterlimit="10" stroke-linecap="round" stroke-dasharray="15.65 15.65"/>
<path d="M962.236 324.701C967.683 324.599 970.972 324.188 970.972 324.188" stroke="black" stroke-width="2" stroke-miterlimit="10" stroke-linecap="round"/>
<path d="M738.79 235.978L748.862 224.683" stroke="black" stroke-width="2" stroke-miterlimit="10" stroke-linecap="round"/>
<path d="M732.623 231.049L740.64 222.218" stroke="black" stroke-width="2" stroke-miterlimit="10" stroke-linecap="round"/>
<path d="M241.827 492.743C230.06 515.522 239.003 543.519 261.802 555.276C284.602 567.034 312.625 558.098 324.392 535.319L385.524 416.985C397.292 394.206 388.349 366.209 365.549 354.452C342.749 342.694 314.727 351.629 302.959 374.409L241.827 492.743Z" fill="white" stroke="black" stroke-width="2" stroke-miterlimit="10"/>
<path d="M566.529 351.502L568.482 642.214H357.781V352.529H363.228C383.476 351.297 411.946 346.676 411.946 346.676L478.857 300.158C478.857 300.158 490.471 342.979 566.529 351.502Z" fill="black" stroke="black" stroke-width="2" stroke-miterlimit="10"/>
<path d="M399.613 345.444C399.613 345.444 381.831 382.001 405.779 389.395C429.727 396.789 437.333 368.139 437.333 368.139C437.333 368.139 420.58 374.505 412.049 346.369L399.613 345.444Z" fill="white" stroke="white" stroke-width="2" stroke-miterlimit="10"/>
<path d="M440.108 368.036C440.108 368.036 456.759 405.106 490.471 381.591C531.789 352.735 478.959 299.851 478.959 299.851C478.959 299.851 492.115 345.444 440.108 368.036Z" fill="white" stroke="white" stroke-width="2" stroke-miterlimit="10"/>
<path d="M448.695 534.776L365.796 589.181C363.709 590.551 363.128 593.352 364.499 595.438L445.87 719.202C447.241 721.287 450.045 721.868 452.133 720.498L535.031 666.092C537.119 664.722 537.699 661.921 536.328 659.835L454.957 536.072C453.586 533.986 450.782 533.406 448.695 534.776Z" fill="white" stroke="black" stroke-width="2" stroke-miterlimit="10"/>
<path d="M439.8 367.214C435.084 368.979 429.859 368.803 425.273 366.723C420.687 364.644 417.114 360.832 415.338 356.124L402.902 322.956L472.484 279.826L476.596 294.1C480.77 308.677 479.303 324.289 472.486 337.835C465.669 351.381 454.001 361.869 439.8 367.214Z" fill="white" stroke="black" stroke-width="2" stroke-miterlimit="10"/>
<path d="M412.049 346.574C412.515 349.262 413.309 351.883 414.413 354.378C416.777 359.616 445.967 370.603 461.076 330.657C471.868 301.802 467.962 283.421 467.962 283.421C467.962 283.421 466.112 313.508 412.049 346.574Z" fill="black"/>
<path d="M473.307 281.675C471.665 282.62 469.845 283.215 467.962 283.42V287.733C467.962 318.026 444.939 343.801 414.619 346.163C380.495 348.833 365.284 324.085 357.37 283.42C356.239 277.567 353.978 269.763 353.567 266.066C366.517 261.65 382.654 252.306 402.079 234.438C402.079 234.438 412.871 251.895 426.952 251.895C437.95 251.811 448.94 252.497 459.842 253.949C462.185 252.994 464.721 252.607 467.242 252.819C470.898 253.175 474.309 254.815 476.869 257.448C479.428 260.08 480.97 263.534 481.221 267.196C481.424 270.112 480.787 273.026 479.384 275.592C477.982 278.158 475.872 280.269 473.307 281.675Z" fill="white" stroke="black" stroke-width="2" stroke-miterlimit="10" stroke-linecap="round"/>
<path d="M487.182 266.682C487.182 266.682 491.499 290.403 479.062 302.418L473.204 282.599C475.77 281.193 477.879 279.082 479.281 276.516C480.684 273.95 481.321 271.037 481.118 268.12C480.707 260.624 474.643 254.052 467.14 253.744C462.206 253.538 456.039 256.927 455.32 263.294C452.75 260.726 446.275 252.511 426.85 252.819C412.769 253.025 401.977 235.362 401.977 235.362C382.551 253.23 366.414 262.575 353.464 266.99C332.394 274.179 319.443 268.017 313.688 263.704C309.245 260.936 305.772 256.859 303.748 252.035C301.725 247.211 301.25 241.878 302.389 236.772C303.528 231.667 306.226 227.041 310.109 223.532C313.992 220.024 318.87 217.807 324.069 217.186C331.366 207.944 342.569 201.167 359.425 202.297C359.425 202.297 399.201 134.214 457.375 178.576C457.375 178.576 511.644 199.319 487.182 266.682Z" fill="black"/>
<path d="M322.424 216.16C322.424 216.16 346.578 212.976 350.38 232.795" stroke="white" stroke-width="2" stroke-miterlimit="10"/>
<path d="M356.342 201.167C356.342 201.167 380.701 200.346 382.448 220.37" stroke="white" stroke-width="2" stroke-miterlimit="10"/>
<path d="M452.853 173.236C452.853 173.236 470.84 189.666 458.095 205.275" stroke="white" stroke-width="2" stroke-miterlimit="10"/>
<path d="M475.362 270.174L464.056 271.714C463.851 271.817 463.748 271.509 463.851 271.406L471.765 261.343" stroke="black" stroke-width="2" stroke-miterlimit="10"/>
<path d="M537.442 462.92L519.558 550.822" stroke="black" stroke-width="2" stroke-miterlimit="10"/>
<path d="M512.774 544.66C515.613 544.66 517.914 542.361 517.914 539.526C517.914 536.69 515.613 534.391 512.774 534.391C509.936 534.391 507.635 536.69 507.635 539.526C507.635 542.361 509.936 544.66 512.774 544.66Z" fill="black"/>
<path d="M551.009 599.907C550.249 599.205 549.248 598.824 548.213 598.843C547.179 598.862 546.192 599.28 545.459 600.009C545.055 600.45 544.754 600.975 544.579 601.546C544.405 602.117 544.36 602.72 544.449 603.311C544.537 603.902 544.757 604.465 545.092 604.96C545.427 605.455 545.868 605.868 546.384 606.171C546.995 606.528 547.694 606.708 548.403 606.69C549.111 606.672 549.8 606.457 550.392 606.068C550.886 605.74 551.3 605.306 551.606 604.799C551.911 604.291 552.1 603.722 552.159 603.133C552.218 602.544 552.146 601.949 551.947 601.391C551.748 600.833 551.427 600.326 551.009 599.907Z" fill="white" stroke="black" stroke-width="2" stroke-miterlimit="10"/>
<path d="M639.092 531.721L637.962 526.484L607.539 384.979C602.708 362.388 581.021 348.217 559.231 353.146C540.217 357.459 527.369 374.813 527.369 393.913C527.367 396.949 527.677 399.977 528.294 402.95L553.476 520.118C553.63 520.695 553.593 521.307 553.371 521.863C553.149 522.418 552.753 522.886 552.242 523.198L476.596 574.029C475.671 574.748 427.569 606.171 427.569 606.171C425.318 607.592 423.647 609.768 422.856 612.308C422.065 614.848 422.205 617.587 423.252 620.034C423.381 620.428 423.553 620.807 423.766 621.163C424.982 623.165 426.858 624.681 429.072 625.449C431.285 626.218 433.698 626.191 435.894 625.373L422.43 634.102C419.917 635.747 418.119 638.28 417.395 641.193C416.671 644.106 417.074 647.185 418.524 649.813L419.038 650.738C422.122 655.975 428.905 657.412 434.25 653.921L438.361 651.251C438.747 650.911 439.159 650.601 439.594 650.327L462.206 635.54L479.782 624.141L462.309 635.642L438.361 651.251C436.667 652.667 435.481 654.595 434.98 656.743C434.479 658.892 434.692 661.145 435.586 663.163C435.694 663.533 435.868 663.881 436.1 664.19C436.768 665.292 437.655 666.245 438.706 666.992C439.757 667.739 440.949 668.263 442.21 668.533C443.472 668.802 444.775 668.811 446.039 668.558C447.304 668.306 448.503 667.798 449.564 667.065L477.212 649.094L495.61 637.183L477.521 649.197L460.459 660.39C458.397 661.751 456.87 663.784 456.139 666.143C455.408 668.503 455.518 671.042 456.45 673.329C456.683 673.637 456.857 673.985 456.964 674.356C457.653 675.45 458.554 676.395 459.615 677.134C460.675 677.874 461.874 678.393 463.139 678.661C464.404 678.929 465.711 678.941 466.98 678.695C468.25 678.45 469.458 677.952 470.531 677.231L515.138 648.17L537.75 633.178L556.765 620.342C585.749 601.036 619.153 578.547 619.153 578.547C624.554 574.951 629.14 570.263 632.617 564.787C637.406 557.455 639.976 548.897 640.017 540.142C640.015 537.31 639.705 534.487 639.092 531.721ZM436.203 625.271L455.525 612.64L436.203 625.271Z" fill="white" stroke="black" stroke-width="2" stroke-miterlimit="10"/>
<path d="M455.525 612.64L470.531 602.782" stroke="black" stroke-width="2" stroke-miterlimit="10"/>
<path d="M485.743 568.073L530.658 638.004" stroke="black" stroke-width="2" stroke-miterlimit="10"/>
<path d="M504.655 555.032L549.673 625.065" stroke="black" stroke-width="2" stroke-miterlimit="10"/>
<path d="M540.011 626.298C539.384 626.693 538.66 626.912 537.919 626.93C537.177 626.948 536.444 626.765 535.797 626.4C535.26 626.078 534.801 625.641 534.455 625.119C534.108 624.597 533.882 624.005 533.794 623.386C533.705 622.766 533.756 622.134 533.943 621.537C534.129 620.939 534.447 620.391 534.872 619.931C535.239 619.539 535.681 619.225 536.172 619.007C536.662 618.789 537.192 618.672 537.728 618.662C538.265 618.653 538.799 618.751 539.297 618.951C539.795 619.152 540.248 619.45 540.628 619.828C541.068 620.267 541.406 620.798 541.617 621.382C541.827 621.966 541.906 622.59 541.847 623.208C541.788 623.827 541.593 624.424 541.276 624.958C540.958 625.493 540.527 625.95 540.011 626.298Z" fill="black"/>
<path d="M376.59 267.504C376.59 267.504 371.862 263.602 362.817 267.504" stroke="black" stroke-width="2" stroke-miterlimit="10" stroke-linecap="round"/>
<path d="M411.7 281.021C413.34 280.878 414.473 278.517 414.23 275.749C413.988 272.98 412.462 270.852 410.822 270.996C409.182 271.139 408.049 273.5 408.292 276.268C408.534 279.036 410.06 281.164 411.7 281.021Z" fill="black"/>
<path d="M389.334 278.697L384.915 302.623C384.858 302.776 384.843 302.941 384.87 303.101C384.898 303.262 384.967 303.412 385.071 303.537C385.176 303.662 385.311 303.757 385.464 303.813C385.617 303.869 385.782 303.884 385.943 303.855L398.071 302.418" stroke="black" stroke-width="2" stroke-miterlimit="10" stroke-linecap="round"/>
<path d="M372.227 285.058C373.867 284.915 374.999 282.555 374.757 279.786C374.515 277.018 372.989 274.89 371.349 275.033C369.709 275.177 368.576 277.537 368.818 280.305C369.061 283.074 370.587 285.202 372.227 285.058Z" fill="black"/>
<path d="M419.963 262.267C417.061 261.553 414.037 261.486 411.106 262.072C408.174 262.657 405.409 263.881 403.004 265.655" stroke="black" stroke-width="2" stroke-miterlimit="10" stroke-linecap="round"/>
<path d="M397.66 319.053C397.66 319.053 401.257 303.445 416.674 308.271" stroke="black" stroke-width="2" stroke-miterlimit="10" stroke-linecap="round"/>
<path d="M285.012 383.747L272.678 377.791L272.781 377.586L284.909 383.439L285.012 383.747Z" fill="white" stroke="black" stroke-width="2" stroke-miterlimit="10"/>
<path d="M203.609 401.821L235.574 531.208C238.036 541.281 243.811 550.238 251.974 556.643C260.136 563.047 270.213 566.53 280.592 566.533C284.337 566.51 288.065 566.027 291.693 565.095C297.621 563.664 303.208 561.075 308.132 557.477C313.055 553.88 317.218 549.345 320.38 544.134C323.542 538.923 325.641 533.138 326.556 527.113C327.471 521.088 327.185 514.941 325.713 509.027L308.343 438.583L299.401 405.107" fill="white"/>
<path d="M203.609 401.821L235.574 531.208C238.036 541.281 243.811 550.238 251.974 556.643C260.136 563.047 270.213 566.53 280.592 566.533C284.337 566.51 288.065 566.027 291.693 565.095C297.621 563.664 303.208 561.075 308.132 557.477C313.055 553.88 317.218 549.345 320.38 544.134C323.542 538.923 325.641 533.138 326.556 527.113C327.471 521.088 327.185 514.941 325.713 509.027L308.343 438.583L299.401 405.107" stroke="black" stroke-width="2" stroke-miterlimit="10"/>
<path d="M299.401 405.106L209.159 424.72L195.078 366.804C191.275 351.4 201.142 336.1 216.971 332.711L249.861 325.523C265.689 322.134 281.62 331.787 285.423 347.293L299.401 405.106Z" fill="white" stroke="black" stroke-width="2" stroke-miterlimit="10"/>
<path d="M213.168 394.838L212.551 395.043C206.795 396.275 200.937 392.27 199.498 386.212L192.303 356.329C189.939 346.882 195.284 337.743 204.123 335.894L209.468 334.765L220.774 381.694C222.213 387.752 218.821 393.605 213.168 394.838Z" fill="white" stroke="black" stroke-width="2" stroke-miterlimit="10"/>
<path d="M440.622 259.905C419.86 225.607 375.767 214.825 342.158 235.876C308.549 256.927 298.27 301.596 319.135 335.894C340 370.192 383.99 380.872 417.599 359.924C451.209 338.975 461.487 294.203 440.622 259.905ZM413.077 352.427C383.579 370.911 344.728 361.464 326.432 331.273C308.137 301.083 317.182 261.753 346.68 243.269C376.179 224.785 415.03 234.335 433.325 264.423C451.62 294.511 442.575 334.046 413.077 352.427Z" fill="white" stroke="black" stroke-width="2" stroke-miterlimit="10"/>
<path d="M413.077 352.427C383.579 370.911 344.728 361.464 326.433 331.273C308.137 301.083 317.182 261.753 346.68 243.269C376.179 224.785 415.03 234.335 433.325 264.423C451.62 294.511 442.575 334.046 413.077 352.427Z" stroke="black" stroke-width="2" stroke-miterlimit="10"/>
<path d="M413.077 352.427C383.579 370.911 344.728 361.464 326.433 331.273C308.137 301.083 317.182 261.753 346.68 243.269C376.179 224.785 415.03 234.335 433.325 264.423C451.62 294.511 442.575 334.046 413.077 352.427Z" stroke="black" stroke-width="2" stroke-miterlimit="10"/>
<path d="M279.564 352.222L315.127 329.938L322.527 342.158L286.759 364.545" fill="white"/>
<path d="M279.564 352.222L315.127 329.938L322.527 342.158L286.759 364.545" stroke="black" stroke-width="2" stroke-miterlimit="10"/>
<path d="M277.406 377.073L264.044 355.2C263.385 354.105 263.177 352.796 263.465 351.551C263.753 350.306 264.513 349.221 265.586 348.525L270.109 345.752C270.64 345.416 271.233 345.188 271.853 345.083C272.474 344.978 273.109 344.998 273.722 345.141C274.334 345.285 274.912 345.549 275.421 345.918C275.93 346.288 276.36 346.755 276.686 347.293L289.945 369.165C290.636 370.27 290.862 371.602 290.573 372.872C290.285 374.142 289.504 375.246 288.404 375.943L283.984 378.716C282.891 379.36 281.589 379.548 280.358 379.241C279.127 378.933 278.067 378.155 277.406 377.073Z" stroke="black" stroke-width="2" stroke-miterlimit="10"/>
<path d="M264.867 384.877L251.505 363.004C250.846 361.909 250.638 360.601 250.926 359.356C251.213 358.11 251.974 357.025 253.047 356.329L257.466 353.557C258 353.21 258.599 352.976 259.226 352.871C259.854 352.765 260.497 352.791 261.114 352.945C261.732 353.099 262.311 353.379 262.815 353.767C263.319 354.155 263.738 354.643 264.044 355.2L277.406 377.073C278.065 378.168 278.273 379.476 277.985 380.721C277.698 381.967 276.937 383.052 275.864 383.747L271.445 386.52C270.912 386.867 270.312 387.101 269.685 387.206C269.057 387.311 268.414 387.286 267.797 387.132C267.18 386.978 266.601 386.698 266.096 386.31C265.592 385.922 265.174 385.434 264.867 384.877V384.877Z" stroke="black" stroke-width="2" stroke-miterlimit="10"/>
<path d="M252.225 392.784L238.966 370.911C238.626 370.373 238.396 369.772 238.29 369.144C238.184 368.516 238.203 367.874 238.346 367.253C238.489 366.633 238.754 366.047 239.125 365.529C239.496 365.011 239.966 364.572 240.508 364.237L244.927 361.464C245.458 361.127 246.052 360.899 246.672 360.794C247.292 360.689 247.928 360.709 248.54 360.853C249.153 360.996 249.731 361.26 250.24 361.63C250.749 361.999 251.179 362.467 251.505 363.004L264.867 384.877C265.507 385.994 265.704 387.311 265.418 388.566C265.133 389.821 264.386 390.923 263.325 391.654L258.803 394.427C257.71 395.071 256.407 395.26 255.177 394.952C253.946 394.645 252.885 393.866 252.225 392.784Z" stroke="black" stroke-width="2" stroke-miterlimit="10"/>
<path d="M239.685 400.588L226.427 378.716C226.087 378.177 225.857 377.576 225.751 376.949C225.644 376.321 225.663 375.678 225.807 375.058C225.95 374.437 226.215 373.851 226.586 373.333C226.957 372.816 227.427 372.376 227.968 372.041L232.388 369.268C232.921 368.921 233.52 368.687 234.148 368.582C234.775 368.477 235.418 368.502 236.036 368.656C236.653 368.81 237.232 369.09 237.736 369.478C238.24 369.866 238.659 370.354 238.966 370.911L252.225 392.784C252.564 393.323 252.794 393.923 252.9 394.551C253.007 395.179 252.988 395.822 252.844 396.442C252.701 397.062 252.436 397.648 252.065 398.166C251.694 398.684 251.225 399.123 250.683 399.459L246.263 402.231C245.73 402.579 245.131 402.812 244.503 402.918C243.876 403.023 243.233 402.998 242.616 402.843C241.998 402.689 241.419 402.409 240.915 402.021C240.411 401.633 239.992 401.145 239.685 400.588V400.588Z" stroke="black" stroke-width="2" stroke-miterlimit="10"/>
<path d="M294.673 345.239L293.543 345.445C292.486 345.708 291.492 346.178 290.619 346.828C289.746 347.478 289.011 348.295 288.456 349.231C287.902 350.168 287.539 351.204 287.389 352.282C287.238 353.359 287.304 354.456 287.581 355.508L295.804 389.601L300.532 388.574C307.418 387.136 311.632 380.153 309.885 372.965L304.746 351.811C304.229 349.635 302.896 347.74 301.022 346.517C299.148 345.294 296.875 344.837 294.673 345.239Z" fill="white" stroke="black" stroke-width="2" stroke-miterlimit="10"/>
<path d="M237.835 398.226L237.116 398.432C230.641 399.767 224.268 395.967 222.829 389.909L209.365 334.765L233.416 329.528L246.777 384.774C248.216 390.833 244.208 396.789 237.835 398.226Z" fill="white" stroke="black" stroke-width="2" stroke-miterlimit="10"/>
<path d="M262.811 396.891L262.092 397.097C255.616 398.432 249.244 394.735 247.702 388.676L233.416 329.528L257.364 324.393L271.753 383.439C272.082 384.911 272.109 386.435 271.834 387.918C271.559 389.401 270.986 390.813 270.151 392.069C269.316 393.326 268.235 394.4 266.974 395.229C265.713 396.058 264.297 396.623 262.811 396.891Z" fill="white" stroke="black" stroke-width="2" stroke-miterlimit="10"/>
<path d="M282.648 379.845H281.928C276.173 381.18 270.211 377.278 268.772 371.219L257.364 324.291L262.811 323.058C271.856 321.107 281.003 327.166 283.264 336.511L290.562 366.496C292.001 372.657 288.506 378.613 282.648 379.845Z" fill="white" stroke="black" stroke-width="2" stroke-miterlimit="10"/>
<path d="M447.406 698.796L457.992 716.253" stroke="black" stroke-width="2" stroke-miterlimit="10" stroke-linecap="round"/>
<path d="M457.478 698.796L465.084 711.632" stroke="black" stroke-width="2" stroke-miterlimit="10" stroke-linecap="round"/>
<path d="M466.317 698.796L471.251 707.524" stroke="black" stroke-width="2" stroke-miterlimit="10" stroke-linecap="round"/>
<path d="M465.667 476.632L327.754 708.981L351.974 723.331L489.886 490.982L465.667 476.632Z" fill="white" stroke="black" stroke-width="1.9997" stroke-miterlimit="10"/>
<path d="M396.188 484.976L279.872 680.941L304.091 695.291L420.407 499.326L396.188 484.976Z" fill="white" stroke="black" stroke-width="1.9997" stroke-miterlimit="10"/>
<path d="M326.661 489.345L232.677 649.391L256.968 663.629L350.951 503.583L326.661 489.345Z" fill="white" stroke="black" stroke-width="2" stroke-miterlimit="10"/>
<path d="M257.463 497.958L184.908 621.514L209.198 635.752L281.753 512.196L257.463 497.958Z" fill="white" stroke="black" stroke-width="2" stroke-miterlimit="10"/>
<path d="M188.42 506.483L137.242 593.637L161.532 607.875L212.711 520.722L188.42 506.483Z" fill="white" stroke="black" stroke-width="2" stroke-miterlimit="10"/>
<path d="M119.186 514.956L89.4361 565.619L113.726 579.857L143.476 529.195L119.186 514.956Z" fill="white" stroke="black" stroke-width="2" stroke-miterlimit="10"/>
<path d="M49.9886 523.467L41.6669 537.639L65.957 551.877L74.2787 537.706L49.9886 523.467Z" fill="white" stroke="black" stroke-width="2" stroke-miterlimit="10"/>
<path d="M59.613 506.871L154.685 482.02L149.135 510.054L343.391 459.326L333.73 475.756L420.888 453.062" stroke="black" stroke-width="2" stroke-miterlimit="10"/>
<path d="M70.9189 496.191L165.991 471.341L160.441 499.375L354.697 448.646L345.036 465.179L432.194 442.382" fill="#06D087"/>
<path d="M70.9189 496.191L165.991 471.341L160.441 499.375L354.697 448.646L345.036 465.179L432.194 442.382" stroke="#FCDDEC" stroke-width="2" stroke-miterlimit="10"/>
</svg>
